<?xml version="1.0" encoding="UTF-8" standalone="no"?>
<!-- Created with Inkscape (http://www.inkscape.org/) -->

<svg
   xmlns:dc="http://purl.org/dc/elements/1.1/"
   xmlns:cc="http://creativecommons.org/ns#"
   xmlns:rdf="http://www.w3.org/1999/02/22-rdf-syntax-ns#"
   xmlns:svg="http://www.w3.org/2000/svg"
   xmlns="http://www.w3.org/2000/svg"
   xmlns:sodipodi="http://sodipodi.sourceforge.net/DTD/sodipodi-0.dtd"
   xmlns:inkscape="http://www.inkscape.org/namespaces/inkscape"
   width="60"
   height="60"
   viewBox="0 0 15.875 15.875"
   version="1.1"
   id="svg8"
   inkscape:version="0.92.2 (5c3e80d, 2017-08-06)"
   sodipodi:docname="fog.svg">
  <defs
     id="defs2">
    <filter
       inkscape:collect="always"
       style="color-interpolation-filters:sRGB"
       id="filter1587"
       x="-0.13676481"
       width="1.2735296"
       y="-1.109108"
       height="3.2182159">
      <feGaussianBlur
         inkscape:collect="always"
         stdDeviation="0.82216014"
         id="feGaussianBlur1589" />
    </filter>
    <filter
       inkscape:collect="always"
       style="color-interpolation-filters:sRGB"
       id="filter1591"
       x="-0.13370273"
       width="1.2674055"
       y="-1.207963"
       height="3.415926">
      <feGaussianBlur
         inkscape:collect="always"
         stdDeviation="0.82216014"
         id="feGaussianBlur1593" />
    </filter>
    <filter
       inkscape:collect="always"
       style="color-interpolation-filters:sRGB"
       id="filter1595"
       x="-0.13203681"
       width="1.2640736"
       y="-0.8050462"
       height="2.6100924">
      <feGaussianBlur
         inkscape:collect="always"
         stdDeviation="0.82216014"
         id="feGaussianBlur1597" />
    </filter>
    <filter
       inkscape:collect="always"
       style="color-interpolation-filters:sRGB"
       id="filter1599"
       x="-0.12784471"
       width="1.2556894"
       y="-0.93857709"
       height="2.8771542">
      <feGaussianBlur
         inkscape:collect="always"
         stdDeviation="0.82216014"
         id="feGaussianBlur1601" />
    </filter>
    <filter
       inkscape:collect="always"
       style="color-interpolation-filters:sRGB"
       id="filter1603"
       x="-0.12971644"
       width="1.2594329"
       y="-0.97851802"
       height="2.957036">
      <feGaussianBlur
         inkscape:collect="always"
         stdDeviation="0.82216014"
         id="feGaussianBlur1605" />
    </filter>
    <filter
       inkscape:collect="always"
       style="color-interpolation-filters:sRGB"
       id="filter1917"
       x="-0.053217001"
       width="1.106434"
       y="-0.40144329"
       height="1.8028866">
      <feGaussianBlur
         inkscape:collect="always"
         stdDeviation="0.33729647"
         id="feGaussianBlur1919" />
    </filter>
    <filter
       inkscape:collect="always"
       style="color-interpolation-filters:sRGB"
       id="filter1921"
       x="-0.05244911"
       width="1.1048982"
       y="-0.38505727"
       height="1.7701145">
      <feGaussianBlur
         inkscape:collect="always"
         stdDeviation="0.33729647"
         id="feGaussianBlur1923" />
    </filter>
    <filter
       inkscape:collect="always"
       style="color-interpolation-filters:sRGB"
       id="filter1925"
       x="-0.054168948"
       width="1.1083379"
       y="-0.33027537"
       height="1.6605507">
      <feGaussianBlur
         inkscape:collect="always"
         stdDeviation="0.33729647"
         id="feGaussianBlur1927" />
    </filter>
    <filter
       inkscape:collect="always"
       style="color-interpolation-filters:sRGB"
       id="filter1929"
       x="-0.054852403"
       width="1.1097048"
       y="-0.49557457"
       height="1.9911491">
      <feGaussianBlur
         inkscape:collect="always"
         stdDeviation="0.33729647"
         id="feGaussianBlur1931" />
    </filter>
    <filter
       inkscape:collect="always"
       style="color-interpolation-filters:sRGB"
       id="filter1933"
       x="-0.056108642"
       width="1.1122173"
       y="-0.45501865"
       height="1.9100373">
      <feGaussianBlur
         inkscape:collect="always"
         stdDeviation="0.33729647"
         id="feGaussianBlur1935" />
    </filter>
    <filter
       inkscape:collect="always"
       style="color-interpolation-filters:sRGB"
       id="filter2027"
       x="-0.076845349"
       width="1.1536907"
       y="-0.57968411"
       height="2.1593682">
      <feGaussianBlur
         inkscape:collect="always"
         stdDeviation="0.4870561"
         id="feGaussianBlur2029" />
    </filter>
    <filter
       inkscape:collect="always"
       style="color-interpolation-filters:sRGB"
       id="filter2031"
       x="-0.075736515"
       width="1.151473"
       y="-0.5560227"
       height="2.1120454">
      <feGaussianBlur
         inkscape:collect="always"
         stdDeviation="0.4870561"
         id="feGaussianBlur2033" />
    </filter>
    <filter
       inkscape:collect="always"
       style="color-interpolation-filters:sRGB"
       id="filter2035"
       x="-0.078219961"
       width="1.1564399"
       y="-0.47691763"
       height="1.9538353">
      <feGaussianBlur
         inkscape:collect="always"
         stdDeviation="0.4870561"
         id="feGaussianBlur2037" />
    </filter>
    <filter
       inkscape:collect="always"
       style="color-interpolation-filters:sRGB"
       id="filter2039"
       x="-0.079206869"
       width="1.1584137"
       y="-0.71560968"
       height="2.4312194">
      <feGaussianBlur
         inkscape:collect="always"
         stdDeviation="0.4870561"
         id="feGaussianBlur2041" />
    </filter>
    <filter
       inkscape:collect="always"
       style="color-interpolation-filters:sRGB"
       id="filter2043"
       x="-0.081020879"
       width="1.1620418"
       y="-0.65704693"
       height="2.3140939">
      <feGaussianBlur
         inkscape:collect="always"
         stdDeviation="0.4870561"
         id="feGaussianBlur2045" />
    </filter>
  </defs>
  <sodipodi:namedview
     id="base"
     pagecolor="#ffffff"
     bordercolor="#666666"
     borderopacity="1.0"
     inkscape:pageopacity="0.0"
     inkscape:pageshadow="2"
     inkscape:zoom="3.959798"
     inkscape:cx="-5.4771628"
     inkscape:cy="27.311972"
     inkscape:document-units="mm"
     inkscape:current-layer="layer1"
     showgrid="false"
     units="px"
     inkscape:window-width="1920"
     inkscape:window-height="1017"
     inkscape:window-x="1272"
     inkscape:window-y="-8"
     inkscape:window-maximized="1" />
  <metadata
     id="metadata5">
    <rdf:RDF>
      <cc:Work
         rdf:about="">
        <dc:format>image/svg+xml</dc:format>
        <dc:type
           rdf:resource="http://purl.org/dc/dcmitype/StillImage" />
        <dc:title></dc:title>
      </cc:Work>
    </rdf:RDF>
  </metadata>
  <g
     inkscape:label="Layer 1"
     inkscape:groupmode="layer"
     id="layer1"
     transform="translate(0,-281.12498)">
    <path
       style="opacity:1;fill:#4d4d4d;fill-opacity:1;stroke:none;stroke-width:2.69921207;stroke-linecap:round;stroke-linejoin:round;stroke-miterlimit:4;stroke-dasharray:none;stroke-dashoffset:0;stroke-opacity:1;paint-order:stroke fill markers;filter:url(#filter1603)"
       id="path815"
       d="m 1.0413708,287.3916 c 0.1176081,0.11491 0.2551573,0.21779 0.3772293,0.33005 0.1241062,0.11556 0.2484061,0.2308 0.3853747,0.3385 0.1321591,0.10874 0.2923851,0.19455 0.4472715,0.28471 0.1943768,0.11834 0.4036794,0.21825 0.6251605,0.30727 0.2989376,0.11812 0.62225,0.19378 0.9535255,0.24561 0.2212065,0.0325 0.4470403,0.0359 0.6718266,0.0374 0.205091,4.3e-4 0.3629633,-0.0398 0.546554,-0.0991 0.3117517,-0.13001 -0.305309,0.12737 -0.4411967,0.18291 -0.02363,0.01 0.045877,-0.021 0.068908,-0.0314 0.068071,-0.0307 0.1354503,-0.0607 0.200945,-0.0943 0.1184375,-0.0596 0.2187768,-0.13409 0.3204464,-0.20751 0.1073549,-0.0876 0.2144381,-0.1753 0.3205731,-0.26369 0.1228206,-0.10211 0.2534039,-0.19917 0.3856506,-0.29481 0.1410073,-0.10901 0.2994564,-0.20437 0.459696,-0.29778 0.3511199,-0.19808 0.7365924,-0.36929 1.1428117,-0.50005 0.1760167,-0.0545 0.3618949,-0.0841 0.5508775,-0.10122 0.218911,-0.0129 0.4386649,-0.0133 0.6581323,-0.0139 0.2377797,0.006 0.4691298,0.0481 0.700737,0.0837 0.2541255,0.044 0.5131395,0.0708 0.7657152,0.11947 0.216422,0.0422 0.415965,0.11704 0.615241,0.18964 0.247381,0.0853 0.498273,0.16504 0.74705,0.24814 0.246424,0.0894 0.473045,0.20389 0.711858,0.30291 0.305751,0.14061 0.642259,0.23449 0.979374,0.3259 0.299581,0.0854 0.612879,0.14243 0.930049,0.17977 0.247012,0.0244 0.496062,0.0367 0.743798,0.014 0.164891,-0.0109 0.320437,-0.0439 0.474,-0.0865 0.03088,-0.0154 0.06802,-0.0215 0.100503,-0.0345 0.01423,-0.006 0.05438,-0.0257 0.04026,-0.0199 -0.54051,0.2226 -0.736354,0.32537 -0.520672,0.21369 0,0 0.65231,-0.18658 0.65231,-0.18658 v 0 c -0.261859,0.12807 -0.529043,0.25549 -0.822947,0.34027 -0.154261,0.0395 -0.314417,0.0607 -0.477103,0.0724 -0.251001,0.0149 -0.502713,0.002 -0.751285,-0.0269 -0.317821,-0.042 -0.630605,-0.10356 -0.93112,-0.19048 -0.34099,-0.0926 -0.678114,-0.19244 -0.990591,-0.33008 -0.237508,-0.0987 -0.464821,-0.21047 -0.710652,-0.29839 -0.249135,-0.0843 -0.501559,-0.16321 -0.750201,-0.24822 -0.196719,-0.07 -0.3949047,-0.14062 -0.6077847,-0.18098 -0.2517955,-0.0473 -0.5092033,-0.0757 -0.7625585,-0.11817 -0.2289247,-0.0352 -0.4590095,-0.0726 -0.6942349,-0.0739 -0.2184654,7.3e-4 -0.4377539,10e-4 -0.6549382,0.0206 -0.1845723,0.0212 -0.365877,0.0548 -0.5363649,0.11168 -0.2682185,0.094 -0.1417053,0.0521 0.3945321,-0.17565 0.028467,-0.0121 -0.057078,0.024 -0.084919,0.0369 -0.09355,0.0431 -0.1857121,0.0887 -0.2715062,0.13972 -0.1600914,0.091 -0.319056,0.18422 -0.4594918,0.29135 -0.1307189,0.0962 -0.2641195,0.19005 -0.3871227,0.2917 -0.1060037,0.088 -0.2125416,0.17569 -0.316071,0.26505 -0.098412,0.0771 -0.2009928,0.15276 -0.3179982,0.21496 -0.2212406,0.13299 -0.8355184,0.37141 -0.9377299,0.41397 -0.026315,0.011 -0.054434,0.0194 -0.08165,0.0292 -0.1802191,0.0535 -0.3657528,0.0859 -0.5620729,0.0813 -0.2262875,-0.004 -0.4535101,-0.0103 -0.6746028,-0.0489 -0.3327022,-0.0598 -0.6589023,-0.13934 -0.9614596,-0.25817 -0.2265411,-0.0896 -0.4418765,-0.18973 -0.6398806,-0.31052 -0.1583357,-0.091 -0.3197209,-0.17995 -0.4526739,-0.29147 -0.1370676,-0.10913 -0.26457277,-0.22406 -0.38845117,-0.3412 -0.1224314,-0.11006 -0.2511829,-0.21629 -0.38064314,-0.32198 0,0 0.59751221,-0.26631 0.59751221,-0.26631 z"
       inkscape:connector-curvature="0"
       transform="matrix(0.80510612,0,0,0.80510612,1.5432375,56.376714)" />
    <path
       style="opacity:1;fill:#4d4d4d;fill-opacity:1;stroke:none;stroke-width:3.16499996;stroke-linecap:round;stroke-linejoin:round;stroke-miterlimit:4;stroke-dasharray:none;stroke-dashoffset:0;stroke-opacity:1;paint-order:stroke fill markers;filter:url(#filter1599)"
       id="path817"
       d="m 0.94268421,290.15356 c 0.22662579,0.24639 0.51109179,0.42993 0.79092719,0.60936 0.5366421,0.34241 1.1068698,0.56875 1.7110114,0.75935 0.5564767,0.1613 1.1359047,0.21815 1.7132763,0.2263 0.4591936,0.005 0.9154768,-0.0533 1.3651957,-0.14139 0.4592392,-0.10097 0.9157089,-0.21376 1.3742728,-0.31786 0.069668,-0.0164 0.1394413,-0.0324 0.2090047,-0.0493 0.1429888,-0.0347 0.2350485,-0.061 0.3779713,-0.0908 0.1669021,-0.0348 0.3360812,-0.0562 0.5043824,-0.0828 0.2684661,-0.0464 0.5406914,-0.0579 0.8124571,-0.0655 0.2304559,4.2e-4 0.4616579,-0.014 0.6917109,0.002 0.218928,0.0151 0.42956,0.083 0.642231,0.13306 0.298748,0.0636 0.59645,0.13322 0.892587,0.20828 0.319453,0.0637 0.636026,0.13763 0.952177,0.21574 0.282111,0.0617 0.557172,0.14952 0.839152,0.21203 0.251507,0.0538 0.508772,0.067 0.765103,0.0739 0.220379,0.0133 0.426444,0.003 0.643029,-0.0376 0.08191,-0.0279 0.16441,-0.0545 0.241423,-0.0945 0.02237,-0.0116 0.08736,-0.0504 0.0655,-0.0378 -0.544928,0.31282 -0.703913,0.4112 -0.46488,0.26458 0.02011,-0.0127 0.04021,-0.0253 0.06032,-0.038 0,0 0.649864,-0.25163 0.649864,-0.25163 v 0 c -0.0205,0.0124 -0.041,0.0247 -0.0615,0.0371 -0.324009,0.21734 -0.661459,0.44309 -1.044367,0.53696 -0.21546,0.033 -0.432066,0.0354 -0.649702,0.0249 -0.257425,-0.0122 -0.515887,-0.029 -0.767646,-0.0878 -0.281232,-0.0656 -0.557275,-0.14999 -0.838857,-0.21415 -0.315188,-0.0809 -0.632994,-0.14832 -0.951158,-0.21643 -0.297059,-0.0742 -0.595855,-0.14184 -0.895568,-0.20447 -0.211748,-0.0473 -0.421744,-0.11072 -0.6397813,-0.12057 -0.2279944,-0.01 -0.4563901,-0.004 -0.684481,-3.7e-4 -0.268976,0.008 -0.5377702,0.0252 -0.8035875,0.0695 -0.3638942,0.0548 -0.7231883,0.1277 -1.0796487,0.21996 -0.4584406,0.10392 -0.9146254,0.21739 -1.374431,0.31503 -0.4526269,0.0836 -0.9116248,0.14164 -1.3729343,0.12933 -0.5775235,-0.0215 -1.1575716,-0.0806 -1.7125727,-0.24976 -0.6020363,-0.19529 -1.1910265,-0.43005 -1.7299359,-0.76665 -0.29171583,-0.17882 -0.58062006,-0.36563 -0.82805761,-0.60423 0,0 0.59751222,-0.36616 0.59751222,-0.36616 z"
       inkscape:connector-curvature="0"
       transform="matrix(0.80510612,0,0,0.80510612,1.5432375,56.376714)" />
    <path
       style="opacity:1;fill:#4d4d4d;fill-opacity:1;stroke:none;stroke-width:3.16499996;stroke-linecap:round;stroke-linejoin:round;stroke-miterlimit:4;stroke-dasharray:none;stroke-dashoffset:0;stroke-opacity:1;paint-order:stroke fill markers;filter:url(#filter1595)"
       id="path819"
       d="m 0.66067862,284.31264 c 0.133266,0.22328 0.3111232,0.41335 0.49049618,0.59957 0.2665546,0.27221 0.5795297,0.48751 0.9064556,0.6796 0.3397645,0.20278 0.6919902,0.32886 1.0744526,0.42115 0.4549745,0.0989 0.9216051,0.11941 1.3856612,0.122 0.4866151,0.005 0.9698146,-0.0492 1.4493764,-0.12582 0.3561879,-0.0705 0.7128362,-0.13397 1.07188,-0.18847 0.3252335,-0.0595 0.6497121,-0.12379 0.9724958,-0.1954 0.2904625,-0.0707 0.5799794,-0.14545 0.8706496,-0.21534 0.3010284,-0.0791 0.6047153,-0.14647 0.9111684,-0.20086 0.3044836,-0.0482 0.6087196,-0.0975 0.9153126,-0.13036 0.241826,-0.0214 0.485439,-0.0332 0.728008,-0.0206 0.210198,0.0163 0.421473,0.0415 0.62592,0.0942 0.193561,0.0438 0.37935,0.11315 0.559863,0.19453 0.189038,0.0717 0.367962,0.16762 0.549402,0.25645 0.207606,0.10671 0.397956,0.24282 0.604809,0.35068 0.185585,0.10493 0.381541,0.18264 0.583797,0.2477 0.151268,0.0471 0.303852,0.0887 0.457456,0.12754 0.06037,0.0154 0.121956,0.024 0.183612,0.032 0,0 -0.571679,0.40236 -0.571679,0.40236 v 0 c -0.06243,-0.0108 -0.124732,-0.0223 -0.18587,-0.0393 -0.153248,-0.0409 -0.306011,-0.083 -0.456449,-0.13348 -0.203813,-0.068 -0.399592,-0.15427 -0.586924,-0.26005 -0.204512,-0.11183 -0.398172,-0.24308 -0.60743,-0.34651 -0.179569,-0.0905 -0.35957,-0.18167 -0.547235,-0.25427 -0.17878,-0.078 -0.362986,-0.14113 -0.553561,-0.18393 -0.201655,-0.0465 -0.408385,-0.0733 -0.614912,-0.0851 -0.240126,-0.006 -0.480488,0.004 -0.719589,0.027 -0.3051052,0.0333 -0.6083807,0.0813 -0.9108359,0.13315 -0.3062127,0.0568 -0.6099847,0.12424 -0.9107366,0.20541 -0.2898201,0.0698 -0.5788245,0.14302 -0.8688634,0.21196 -0.3237618,0.068 -0.6477711,0.13536 -0.9739304,0.19108 -0.3566835,0.0534 -0.7104928,0.12056 -1.0654459,0.18391 -0.4797514,0.0711 -0.9629452,0.11765 -1.4486572,0.11217 -0.4695311,-0.002 -0.9417105,-0.0258 -1.4011722,-0.12996 -0.1779006,-0.0426 -0.2254002,-0.0488 -0.392681,-0.10762 -0.2426916,-0.0853 -0.4709865,-0.20491 -0.6959448,-0.32833 -0.3303163,-0.19735 -0.64664705,-0.41962 -0.9200542,-0.69222 -0.18439934,-0.18753 -0.36157704,-0.3825 -0.51222812,-0.59874 0,0 0.60338334,-0.35619 0.60338334,-0.35619 z"
       inkscape:connector-curvature="0"
       transform="matrix(0.80510612,0,0,0.80510612,1.5432375,56.376714)" />
    <path
       style="opacity:1;fill:#4d4d4d;fill-opacity:1;stroke:none;stroke-width:3.16499996;stroke-linecap:round;stroke-linejoin:round;stroke-miterlimit:4;stroke-dasharray:none;stroke-dashoffset:0;stroke-opacity:1;paint-order:stroke fill markers;filter:url(#filter1591)"
       id="path821"
       d="m 1.5326941,289.25312 c 0.2511108,0.22323 0.5464189,0.38594 0.8449692,0.53588 0.4499877,0.22051 0.9293227,0.36626 1.414798,0.48396 0.4365053,0.10184 0.8846203,0.13139 1.3312084,0.14587 0.4336976,0.0288 0.8623226,-0.0127 1.2881665,-0.0925 0.4035131,-0.0857 0.7975296,-0.21411 1.17891,-0.37052 0.2596251,-0.11272 0.5222304,-0.2189 0.7875567,-0.31775 0.2367796,-0.0939 0.4822317,-0.16182 0.7285267,-0.22556 0.2651726,-0.0772 0.5414317,-0.1007 0.8148103,-0.13105 0.2658141,-0.0255 0.5304841,-0.0597 0.7969601,-0.0782 0.206758,-0.0135 0.412661,-0.0213 0.618005,0.009 0.23905,0.0392 0.469177,0.10404 0.690095,0.20316 0.240105,0.12353 0.468372,0.26987 0.693211,0.41915 0.181257,0.13078 0.366614,0.25551 0.571052,0.34698 0.190381,0.0907 0.396062,0.13543 0.603544,0.16494 0.246827,0.0344 0.491655,0.0242 0.736327,-0.0174 0.225749,-0.0472 0.442219,-0.12618 0.654767,-0.2143 0.05469,-0.0307 0.114362,-0.0513 0.169935,-0.0802 0.02258,-0.0118 0.08784,-0.0514 0.06575,-0.0388 -0.177956,0.10185 -0.710474,0.40975 -0.533362,0.30644 0.636829,-0.37148 0.428681,-0.27511 0.712756,-0.40355 0,0 -0.545823,0.43578 -0.545823,0.43578 v 0 c -0.01805,0.01 -0.07175,0.0388 -0.05414,0.0285 0.178644,-0.10451 0.71685,-0.41411 0.537294,-0.31118 -0.298141,0.17091 -0.579178,0.36032 -0.895754,0.49057 -0.214418,0.0843 -0.432836,0.15982 -0.660642,0.19894 -0.250349,0.0357 -0.501371,0.0395 -0.752347,0.003 -0.211542,-0.0354 -0.421408,-0.0848 -0.614692,-0.18095 -0.203803,-0.0986 -0.390977,-0.22453 -0.57408,-0.35724 -0.222075,-0.14659 -0.444298,-0.29644 -0.686063,-0.409 -0.220013,-0.0895 -0.446067,-0.15487 -0.682391,-0.18516 -0.202503,-0.0214 -0.405686,-0.0113 -0.608637,0.001 -0.2643018,0.0191 -0.5272174,0.0512 -0.7908769,0.0773 -0.2728875,0.0315 -0.547166,0.0618 -0.8113416,0.1409 -0.2450668,0.0659 -0.488551,0.13719 -0.7245831,0.23115 -0.2628524,0.0983 -0.5218544,0.20647 -0.7808582,0.31436 -0.3828229,0.14755 -0.774755,0.27504 -1.1781927,0.35295 -0.4311145,0.0753 -0.8659731,0.11459 -1.3039751,0.0857 -0.4461225,-0.0227 -0.8940927,-0.0559 -1.3291484,-0.16364 -0.4896234,-0.1211 -0.9730128,-0.27268 -1.4281394,-0.49289 -0.3068686,-0.15169 -0.6060768,-0.31939 -0.87360539,-0.53476 0,0 0.59000589,-0.3706 0.59000589,-0.3706 z"
       inkscape:connector-curvature="0"
       transform="matrix(0.80510612,0,0,0.80510612,1.5432375,56.376714)" />
    <path
       style="opacity:1;fill:#4d4d4d;fill-opacity:1;stroke:none;stroke-width:3.16499996;stroke-linecap:round;stroke-linejoin:round;stroke-miterlimit:4;stroke-dasharray:none;stroke-dashoffset:0;stroke-opacity:1;paint-order:stroke fill markers;filter:url(#filter1587)"
       id="path823"
       d="m 1.3552701,292.58897 c 0.00532,0.23496 0.1204357,0.40339 0.2733775,0.57116 0.3878403,0.31713 0.8819906,0.43647 1.3611611,0.53916 0.5797119,0.10499 1.1696343,0.11996 1.7570527,0.1298 0.4670644,0.009 0.9329967,0.006 1.3976101,-0.0446 0.3828102,-0.0542 0.7491812,-0.17785 1.1082967,-0.3165 0.3775903,-0.13587 0.746851,-0.29253 1.1143787,-0.45319 0.3489245,-0.14943 0.7047155,-0.28175 1.0624255,-0.40838 0.275528,-0.0973 0.565207,-0.13041 0.8548376,-0.15009 0.237965,-0.0111 0.476269,-0.008 0.714405,-0.008 0.248506,-0.009 0.492961,0.006 0.735306,0.0625 0.23259,0.0455 0.455593,0.11872 0.674004,0.20913 0.162996,0.0725 0.32834,0.13983 0.491384,0.21214 0.151014,0.064 0.300851,0.12982 0.458632,0.17538 0.177786,0.0529 0.362328,0.0739 0.544401,0.10637 0.139495,0.0249 0.280911,0.0325 0.422277,0.0364 0.136898,0.007 0.269663,-0.0353 0.393096,-0.0907 0.276108,-0.0884 0.861411,-0.44895 -0.206417,0.16164 0,0 0.650977,-0.25306 0.650977,-0.25306 v 0 c -0.332157,0.19334 -0.633393,0.39782 -0.992377,0.52241 -0.132567,0.0475 -0.268787,0.0804 -0.410869,0.0678 -0.143029,-0.006 -0.285611,-0.0185 -0.426295,-0.046 -0.183599,-0.0343 -0.369555,-0.0578 -0.548593,-0.11321 -0.158604,-0.0508 -0.311614,-0.11599 -0.464684,-0.1814 -0.162139,-0.0715 -0.323807,-0.14407 -0.486865,-0.21336 -0.214049,-0.0898 -0.435489,-0.15485 -0.663045,-0.20132 -0.241042,-0.0475 -0.48366,-0.0563 -0.729007,-0.0494 -0.236795,-0.001 -0.4738376,-0.002 -0.7103516,0.011 -0.284809,0.0207 -0.568061,0.0615 -0.837659,0.1603 -0.3556518,0.12625 -0.7094859,0.25806 -1.0555371,0.409 -0.3690932,0.15993 -0.7405272,0.31442 -1.1184895,0.4524 -0.3609875,0.1355 -0.7301807,0.25281 -1.1146692,0.29913 -0.4636265,0.0444 -0.9283631,0.0455 -1.3937425,0.0317 -0.5898081,-0.013 -1.1817334,-0.0322 -1.7632002,-0.1413 -0.4948378,-0.11021 -1.0011386,-0.23654 -1.4050835,-0.56023 -0.15573857,-0.17157 -0.28950987,-0.3634 -0.30710537,-0.60205 0,0 0.62036807,-0.32479 0.62036807,-0.32479 z"
       inkscape:connector-curvature="0"
       transform="matrix(0.80510612,0,0,0.80510612,1.5432375,56.376714)" />
    <path
       transform="matrix(0.80510612,0,0,0.80510612,1.5432375,56.376714)"
       inkscape:connector-curvature="0"
       d="m 1.0413708,287.3916 c 0.1176081,0.11491 0.2551573,0.21779 0.3772293,0.33005 0.1241062,0.11556 0.2484061,0.2308 0.3853747,0.3385 0.1321591,0.10874 0.2923851,0.19455 0.4472715,0.28471 0.1943768,0.11834 0.4036794,0.21825 0.6251605,0.30727 0.2989376,0.11812 0.62225,0.19378 0.9535255,0.24561 0.2212065,0.0325 0.4470403,0.0359 0.6718266,0.0374 0.205091,4.3e-4 0.3629633,-0.0398 0.546554,-0.0991 0.3117517,-0.13001 -0.305309,0.12737 -0.4411967,0.18291 -0.02363,0.01 0.045877,-0.021 0.068908,-0.0314 0.068071,-0.0307 0.1354503,-0.0607 0.200945,-0.0943 0.1184375,-0.0596 0.2187768,-0.13409 0.3204464,-0.20751 0.1073549,-0.0876 0.2144381,-0.1753 0.3205731,-0.26369 0.1228206,-0.10211 0.2534039,-0.19917 0.3856506,-0.29481 0.1410073,-0.10901 0.2994564,-0.20437 0.459696,-0.29778 0.3511199,-0.19808 0.7365924,-0.36929 1.1428117,-0.50005 0.1760167,-0.0545 0.3618949,-0.0841 0.5508775,-0.10122 0.218911,-0.0129 0.4386649,-0.0133 0.6581323,-0.0139 0.2377797,0.006 0.4691298,0.0481 0.700737,0.0837 0.2541255,0.044 0.5131395,0.0708 0.7657152,0.11947 0.216422,0.0422 0.415965,0.11704 0.615241,0.18964 0.247381,0.0853 0.498273,0.16504 0.74705,0.24814 0.246424,0.0894 0.473045,0.20389 0.711858,0.30291 0.305751,0.14061 0.642259,0.23449 0.979374,0.3259 0.299581,0.0854 0.612879,0.14243 0.930049,0.17977 0.247012,0.0244 0.496062,0.0367 0.743798,0.014 0.164891,-0.0109 0.320437,-0.0439 0.474,-0.0865 0.03088,-0.0154 0.06802,-0.0215 0.100503,-0.0345 0.01423,-0.006 0.05438,-0.0257 0.04026,-0.0199 -0.54051,0.2226 -0.736354,0.32537 -0.520672,0.21369 0,0 0.65231,-0.18658 0.65231,-0.18658 v 0 c -0.261859,0.12807 -0.529043,0.25549 -0.822947,0.34027 -0.154261,0.0395 -0.314417,0.0607 -0.477103,0.0724 -0.251001,0.0149 -0.502713,0.002 -0.751285,-0.0269 -0.317821,-0.042 -0.630605,-0.10356 -0.93112,-0.19048 -0.34099,-0.0926 -0.678114,-0.19244 -0.990591,-0.33008 -0.237508,-0.0987 -0.464821,-0.21047 -0.710652,-0.29839 -0.249135,-0.0843 -0.501559,-0.16321 -0.750201,-0.24822 -0.196719,-0.07 -0.3949047,-0.14062 -0.6077847,-0.18098 -0.2517955,-0.0473 -0.5092033,-0.0757 -0.7625585,-0.11817 -0.2289247,-0.0352 -0.4590095,-0.0726 -0.6942349,-0.0739 -0.2184654,7.3e-4 -0.4377539,10e-4 -0.6549382,0.0206 -0.1845723,0.0212 -0.365877,0.0548 -0.5363649,0.11168 -0.2682185,0.094 -0.1417053,0.0521 0.3945321,-0.17565 0.028467,-0.0121 -0.057078,0.024 -0.084919,0.0369 -0.09355,0.0431 -0.1857121,0.0887 -0.2715062,0.13972 -0.1600914,0.091 -0.319056,0.18422 -0.4594918,0.29135 -0.1307189,0.0962 -0.2641195,0.19005 -0.3871227,0.2917 -0.1060037,0.088 -0.2125416,0.17569 -0.316071,0.26505 -0.098412,0.0771 -0.2009928,0.15276 -0.3179982,0.21496 -0.2212406,0.13299 -0.8355184,0.37141 -0.9377299,0.41397 -0.026315,0.011 -0.054434,0.0194 -0.08165,0.0292 -0.1802191,0.0535 -0.3657528,0.0859 -0.5620729,0.0813 -0.2262875,-0.004 -0.4535101,-0.0103 -0.6746028,-0.0489 -0.3327022,-0.0598 -0.6589023,-0.13934 -0.9614596,-0.25817 -0.2265411,-0.0896 -0.4418765,-0.18973 -0.6398806,-0.31052 -0.1583357,-0.091 -0.3197209,-0.17995 -0.4526739,-0.29147 -0.1370676,-0.10913 -0.26457277,-0.22406 -0.38845117,-0.3412 -0.1224314,-0.11006 -0.2511829,-0.21629 -0.38064314,-0.32198 0,0 0.59751221,-0.26631 0.59751221,-0.26631 z"
       id="path1607"
       style="opacity:1;fill:#4d4d4d;fill-opacity:1;stroke:none;stroke-width:2.69921207;stroke-linecap:round;stroke-linejoin:round;stroke-miterlimit:4;stroke-dasharray:none;stroke-dashoffset:0;stroke-opacity:1;paint-order:stroke fill markers;filter:url(#filter1917)" />
    <path
       transform="matrix(0.80510612,0,0,0.80510612,1.5432375,56.376714)"
       inkscape:connector-curvature="0"
       d="m 0.94268421,290.15356 c 0.22662579,0.24639 0.51109179,0.42993 0.79092719,0.60936 0.5366421,0.34241 1.1068698,0.56875 1.7110114,0.75935 0.5564767,0.1613 1.1359047,0.21815 1.7132763,0.2263 0.4591936,0.005 0.9154768,-0.0533 1.3651957,-0.14139 0.4592392,-0.10097 0.9157089,-0.21376 1.3742728,-0.31786 0.069668,-0.0164 0.1394413,-0.0324 0.2090047,-0.0493 0.1429888,-0.0347 0.2350485,-0.061 0.3779713,-0.0908 0.1669021,-0.0348 0.3360812,-0.0562 0.5043824,-0.0828 0.2684661,-0.0464 0.5406914,-0.0579 0.8124571,-0.0655 0.2304559,4.2e-4 0.4616579,-0.014 0.6917109,0.002 0.218928,0.0151 0.42956,0.083 0.642231,0.13306 0.298748,0.0636 0.59645,0.13322 0.892587,0.20828 0.319453,0.0637 0.636026,0.13763 0.952177,0.21574 0.282111,0.0617 0.557172,0.14952 0.839152,0.21203 0.251507,0.0538 0.508772,0.067 0.765103,0.0739 0.220379,0.0133 0.426444,0.003 0.643029,-0.0376 0.08191,-0.0279 0.16441,-0.0545 0.241423,-0.0945 0.02237,-0.0116 0.08736,-0.0504 0.0655,-0.0378 -0.544928,0.31282 -0.703913,0.4112 -0.46488,0.26458 0.02011,-0.0127 0.04021,-0.0253 0.06032,-0.038 0,0 0.649864,-0.25163 0.649864,-0.25163 v 0 c -0.0205,0.0124 -0.041,0.0247 -0.0615,0.0371 -0.324009,0.21734 -0.661459,0.44309 -1.044367,0.53696 -0.21546,0.033 -0.432066,0.0354 -0.649702,0.0249 -0.257425,-0.0122 -0.515887,-0.029 -0.767646,-0.0878 -0.281232,-0.0656 -0.557275,-0.14999 -0.838857,-0.21415 -0.315188,-0.0809 -0.632994,-0.14832 -0.951158,-0.21643 -0.297059,-0.0742 -0.595855,-0.14184 -0.895568,-0.20447 -0.211748,-0.0473 -0.421744,-0.11072 -0.6397813,-0.12057 -0.2279944,-0.01 -0.4563901,-0.004 -0.684481,-3.7e-4 -0.268976,0.008 -0.5377702,0.0252 -0.8035875,0.0695 -0.3638942,0.0548 -0.7231883,0.1277 -1.0796487,0.21996 -0.4584406,0.10392 -0.9146254,0.21739 -1.374431,0.31503 -0.4526269,0.0836 -0.9116248,0.14164 -1.3729343,0.12933 -0.5775235,-0.0215 -1.1575716,-0.0806 -1.7125727,-0.24976 -0.6020363,-0.19529 -1.1910265,-0.43005 -1.7299359,-0.76665 -0.29171583,-0.17882 -0.58062006,-0.36563 -0.82805761,-0.60423 0,0 0.59751222,-0.36616 0.59751222,-0.36616 z"
       id="path1609"
       style="opacity:1;fill:#4d4d4d;fill-opacity:1;stroke:none;stroke-width:3.16499996;stroke-linecap:round;stroke-linejoin:round;stroke-miterlimit:4;stroke-dasharray:none;stroke-dashoffset:0;stroke-opacity:1;paint-order:stroke fill markers;filter:url(#filter1921)" />
    <path
       transform="matrix(0.80510612,0,0,0.80510612,1.5432375,56.376714)"
       inkscape:connector-curvature="0"
       d="m 0.66067862,284.31264 c 0.133266,0.22328 0.3111232,0.41335 0.49049618,0.59957 0.2665546,0.27221 0.5795297,0.48751 0.9064556,0.6796 0.3397645,0.20278 0.6919902,0.32886 1.0744526,0.42115 0.4549745,0.0989 0.9216051,0.11941 1.3856612,0.122 0.4866151,0.005 0.9698146,-0.0492 1.4493764,-0.12582 0.3561879,-0.0705 0.7128362,-0.13397 1.07188,-0.18847 0.3252335,-0.0595 0.6497121,-0.12379 0.9724958,-0.1954 0.2904625,-0.0707 0.5799794,-0.14545 0.8706496,-0.21534 0.3010284,-0.0791 0.6047153,-0.14647 0.9111684,-0.20086 0.3044836,-0.0482 0.6087196,-0.0975 0.9153126,-0.13036 0.241826,-0.0214 0.485439,-0.0332 0.728008,-0.0206 0.210198,0.0163 0.421473,0.0415 0.62592,0.0942 0.193561,0.0438 0.37935,0.11315 0.559863,0.19453 0.189038,0.0717 0.367962,0.16762 0.549402,0.25645 0.207606,0.10671 0.397956,0.24282 0.604809,0.35068 0.185585,0.10493 0.381541,0.18264 0.583797,0.2477 0.151268,0.0471 0.303852,0.0887 0.457456,0.12754 0.06037,0.0154 0.121956,0.024 0.183612,0.032 0,0 -0.571679,0.40236 -0.571679,0.40236 v 0 c -0.06243,-0.0108 -0.124732,-0.0223 -0.18587,-0.0393 -0.153248,-0.0409 -0.306011,-0.083 -0.456449,-0.13348 -0.203813,-0.068 -0.399592,-0.15427 -0.586924,-0.26005 -0.204512,-0.11183 -0.398172,-0.24308 -0.60743,-0.34651 -0.179569,-0.0905 -0.35957,-0.18167 -0.547235,-0.25427 -0.17878,-0.078 -0.362986,-0.14113 -0.553561,-0.18393 -0.201655,-0.0465 -0.408385,-0.0733 -0.614912,-0.0851 -0.240126,-0.006 -0.480488,0.004 -0.719589,0.027 -0.3051052,0.0333 -0.6083807,0.0813 -0.9108359,0.13315 -0.3062127,0.0568 -0.6099847,0.12424 -0.9107366,0.20541 -0.2898201,0.0698 -0.5788245,0.14302 -0.8688634,0.21196 -0.3237618,0.068 -0.6477711,0.13536 -0.9739304,0.19108 -0.3566835,0.0534 -0.7104928,0.12056 -1.0654459,0.18391 -0.4797514,0.0711 -0.9629452,0.11765 -1.4486572,0.11217 -0.4695311,-0.002 -0.9417105,-0.0258 -1.4011722,-0.12996 -0.1779006,-0.0426 -0.2254002,-0.0488 -0.392681,-0.10762 -0.2426916,-0.0853 -0.4709865,-0.20491 -0.6959448,-0.32833 -0.3303163,-0.19735 -0.64664705,-0.41962 -0.9200542,-0.69222 -0.18439934,-0.18753 -0.36157704,-0.3825 -0.51222812,-0.59874 0,0 0.60338334,-0.35619 0.60338334,-0.35619 z"
       id="path1611"
       style="opacity:1;fill:#4d4d4d;fill-opacity:1;stroke:none;stroke-width:3.16499996;stroke-linecap:round;stroke-linejoin:round;stroke-miterlimit:4;stroke-dasharray:none;stroke-dashoffset:0;stroke-opacity:1;paint-order:stroke fill markers;filter:url(#filter1925)" />
    <path
       transform="matrix(0.80510612,0,0,0.80510612,1.5432375,56.376714)"
       inkscape:connector-curvature="0"
       d="m 1.5326941,289.25312 c 0.2511108,0.22323 0.5464189,0.38594 0.8449692,0.53588 0.4499877,0.22051 0.9293227,0.36626 1.414798,0.48396 0.4365053,0.10184 0.8846203,0.13139 1.3312084,0.14587 0.4336976,0.0288 0.8623226,-0.0127 1.2881665,-0.0925 0.4035131,-0.0857 0.7975296,-0.21411 1.17891,-0.37052 0.2596251,-0.11272 0.5222304,-0.2189 0.7875567,-0.31775 0.2367796,-0.0939 0.4822317,-0.16182 0.7285267,-0.22556 0.2651726,-0.0772 0.5414317,-0.1007 0.8148103,-0.13105 0.2658141,-0.0255 0.5304841,-0.0597 0.7969601,-0.0782 0.206758,-0.0135 0.412661,-0.0213 0.618005,0.009 0.23905,0.0392 0.469177,0.10404 0.690095,0.20316 0.240105,0.12353 0.468372,0.26987 0.693211,0.41915 0.181257,0.13078 0.366614,0.25551 0.571052,0.34698 0.190381,0.0907 0.396062,0.13543 0.603544,0.16494 0.246827,0.0344 0.491655,0.0242 0.736327,-0.0174 0.225749,-0.0472 0.442219,-0.12618 0.654767,-0.2143 0.05469,-0.0307 0.114362,-0.0513 0.169935,-0.0802 0.02258,-0.0118 0.08784,-0.0514 0.06575,-0.0388 -0.177956,0.10185 -0.710474,0.40975 -0.533362,0.30644 0.636829,-0.37148 0.428681,-0.27511 0.712756,-0.40355 0,0 -0.545823,0.43578 -0.545823,0.43578 v 0 c -0.01805,0.01 -0.07175,0.0388 -0.05414,0.0285 0.178644,-0.10451 0.71685,-0.41411 0.537294,-0.31118 -0.298141,0.17091 -0.579178,0.36032 -0.895754,0.49057 -0.214418,0.0843 -0.432836,0.15982 -0.660642,0.19894 -0.250349,0.0357 -0.501371,0.0395 -0.752347,0.003 -0.211542,-0.0354 -0.421408,-0.0848 -0.614692,-0.18095 -0.203803,-0.0986 -0.390977,-0.22453 -0.57408,-0.35724 -0.222075,-0.14659 -0.444298,-0.29644 -0.686063,-0.409 -0.220013,-0.0895 -0.446067,-0.15487 -0.682391,-0.18516 -0.202503,-0.0214 -0.405686,-0.0113 -0.608637,0.001 -0.2643018,0.0191 -0.5272174,0.0512 -0.7908769,0.0773 -0.2728875,0.0315 -0.547166,0.0618 -0.8113416,0.1409 -0.2450668,0.0659 -0.488551,0.13719 -0.7245831,0.23115 -0.2628524,0.0983 -0.5218544,0.20647 -0.7808582,0.31436 -0.3828229,0.14755 -0.774755,0.27504 -1.1781927,0.35295 -0.4311145,0.0753 -0.8659731,0.11459 -1.3039751,0.0857 -0.4461225,-0.0227 -0.8940927,-0.0559 -1.3291484,-0.16364 -0.4896234,-0.1211 -0.9730128,-0.27268 -1.4281394,-0.49289 -0.3068686,-0.15169 -0.6060768,-0.31939 -0.87360539,-0.53476 0,0 0.59000589,-0.3706 0.59000589,-0.3706 z"
       id="path1613"
       style="opacity:1;fill:#4d4d4d;fill-opacity:1;stroke:none;stroke-width:3.16499996;stroke-linecap:round;stroke-linejoin:round;stroke-miterlimit:4;stroke-dasharray:none;stroke-dashoffset:0;stroke-opacity:1;paint-order:stroke fill markers;filter:url(#filter1929)" />
    <path
       transform="matrix(0.80510612,0,0,0.80510612,2.0724042,56.376714)"
       inkscape:connector-curvature="0"
       d="m 1.3552701,292.58897 c 0.00532,0.23496 0.1204357,0.40339 0.2733775,0.57116 0.3878403,0.31713 0.8819906,0.43647 1.3611611,0.53916 0.5797119,0.10499 1.1696343,0.11996 1.7570527,0.1298 0.4670644,0.009 0.9329967,0.006 1.3976101,-0.0446 0.3828102,-0.0542 0.7491812,-0.17785 1.1082967,-0.3165 0.3775903,-0.13587 0.746851,-0.29253 1.1143787,-0.45319 0.3489245,-0.14943 0.7047155,-0.28175 1.0624255,-0.40838 0.275528,-0.0973 0.565207,-0.13041 0.8548376,-0.15009 0.237965,-0.0111 0.476269,-0.008 0.714405,-0.008 0.248506,-0.009 0.492961,0.006 0.735306,0.0625 0.23259,0.0455 0.455593,0.11872 0.674004,0.20913 0.162996,0.0725 0.32834,0.13983 0.491384,0.21214 0.151014,0.064 0.300851,0.12982 0.458632,0.17538 0.177786,0.0529 0.362328,0.0739 0.544401,0.10637 0.139495,0.0249 0.280911,0.0325 0.422277,0.0364 0.136898,0.007 0.269663,-0.0353 0.393096,-0.0907 0.276108,-0.0884 0.861411,-0.44895 -0.206417,0.16164 0,0 0.650977,-0.25306 0.650977,-0.25306 v 0 c -0.332157,0.19334 -0.633393,0.39782 -0.992377,0.52241 -0.132567,0.0475 -0.268787,0.0804 -0.410869,0.0678 -0.143029,-0.006 -0.285611,-0.0185 -0.426295,-0.046 -0.183599,-0.0343 -0.369555,-0.0578 -0.548593,-0.11321 -0.158604,-0.0508 -0.311614,-0.11599 -0.464684,-0.1814 -0.162139,-0.0715 -0.323807,-0.14407 -0.486865,-0.21336 -0.214049,-0.0898 -0.435489,-0.15485 -0.663045,-0.20132 -0.241042,-0.0475 -0.48366,-0.0563 -0.729007,-0.0494 -0.236795,-0.001 -0.4738376,-0.002 -0.7103516,0.011 -0.284809,0.0207 -0.568061,0.0615 -0.837659,0.1603 -0.3556518,0.12625 -0.7094859,0.25806 -1.0555371,0.409 -0.3690932,0.15993 -0.7405272,0.31442 -1.1184895,0.4524 -0.3609875,0.1355 -0.7301807,0.25281 -1.1146692,0.29913 -0.4636265,0.0444 -0.9283631,0.0455 -1.3937425,0.0317 -0.5898081,-0.013 -1.1817334,-0.0322 -1.7632002,-0.1413 -0.4948378,-0.11021 -1.0011386,-0.23654 -1.4050835,-0.56023 -0.15573857,-0.17157 -0.28950987,-0.3634 -0.30710537,-0.60205 0,0 0.62036807,-0.32479 0.62036807,-0.32479 z"
       id="path1615"
       style="opacity:1;fill:#6c5353;fill-opacity:1;stroke:none;stroke-width:3.16499996;stroke-linecap:round;stroke-linejoin:round;stroke-miterlimit:4;stroke-dasharray:none;stroke-dashoffset:0;stroke-opacity:1;paint-order:stroke fill markers;filter:url(#filter1933)" />
    <path
       style="opacity:1;fill:#6c5353;fill-opacity:1;stroke:none;stroke-width:2.69921207;stroke-linecap:round;stroke-linejoin:round;stroke-miterlimit:4;stroke-dasharray:none;stroke-dashoffset:0;stroke-opacity:1;paint-order:stroke fill markers;filter:url(#filter2027)"
       id="path1937"
       d="m 1.0413708,287.3916 c 0.1176081,0.11491 0.2551573,0.21779 0.3772293,0.33005 0.1241062,0.11556 0.2484061,0.2308 0.3853747,0.3385 0.1321591,0.10874 0.2923851,0.19455 0.4472715,0.28471 0.1943768,0.11834 0.4036794,0.21825 0.6251605,0.30727 0.2989376,0.11812 0.62225,0.19378 0.9535255,0.24561 0.2212065,0.0325 0.4470403,0.0359 0.6718266,0.0374 0.205091,4.3e-4 0.3629633,-0.0398 0.546554,-0.0991 0.3117517,-0.13001 -0.305309,0.12737 -0.4411967,0.18291 -0.02363,0.01 0.045877,-0.021 0.068908,-0.0314 0.068071,-0.0307 0.1354503,-0.0607 0.200945,-0.0943 0.1184375,-0.0596 0.2187768,-0.13409 0.3204464,-0.20751 0.1073549,-0.0876 0.2144381,-0.1753 0.3205731,-0.26369 0.1228206,-0.10211 0.2534039,-0.19917 0.3856506,-0.29481 0.1410073,-0.10901 0.2994564,-0.20437 0.459696,-0.29778 0.3511199,-0.19808 0.7365924,-0.36929 1.1428117,-0.50005 0.1760167,-0.0545 0.3618949,-0.0841 0.5508775,-0.10122 0.218911,-0.0129 0.4386649,-0.0133 0.6581323,-0.0139 0.2377797,0.006 0.4691298,0.0481 0.700737,0.0837 0.2541255,0.044 0.5131395,0.0708 0.7657152,0.11947 0.216422,0.0422 0.415965,0.11704 0.615241,0.18964 0.247381,0.0853 0.498273,0.16504 0.74705,0.24814 0.246424,0.0894 0.473045,0.20389 0.711858,0.30291 0.305751,0.14061 0.642259,0.23449 0.979374,0.3259 0.299581,0.0854 0.612879,0.14243 0.930049,0.17977 0.247012,0.0244 0.496062,0.0367 0.743798,0.014 0.164891,-0.0109 0.320437,-0.0439 0.474,-0.0865 0.03088,-0.0154 0.06802,-0.0215 0.100503,-0.0345 0.01423,-0.006 0.05438,-0.0257 0.04026,-0.0199 -0.54051,0.2226 -0.736354,0.32537 -0.520672,0.21369 0,0 0.65231,-0.18658 0.65231,-0.18658 v 0 c -0.261859,0.12807 -0.529043,0.25549 -0.822947,0.34027 -0.154261,0.0395 -0.314417,0.0607 -0.477103,0.0724 -0.251001,0.0149 -0.502713,0.002 -0.751285,-0.0269 -0.317821,-0.042 -0.630605,-0.10356 -0.93112,-0.19048 -0.34099,-0.0926 -0.678114,-0.19244 -0.990591,-0.33008 -0.237508,-0.0987 -0.464821,-0.21047 -0.710652,-0.29839 -0.249135,-0.0843 -0.501559,-0.16321 -0.750201,-0.24822 -0.196719,-0.07 -0.3949047,-0.14062 -0.6077847,-0.18098 -0.2517955,-0.0473 -0.5092033,-0.0757 -0.7625585,-0.11817 -0.2289247,-0.0352 -0.4590095,-0.0726 -0.6942349,-0.0739 -0.2184654,7.3e-4 -0.4377539,10e-4 -0.6549382,0.0206 -0.1845723,0.0212 -0.365877,0.0548 -0.5363649,0.11168 -0.2682185,0.094 -0.1417053,0.0521 0.3945321,-0.17565 0.028467,-0.0121 -0.057078,0.024 -0.084919,0.0369 -0.09355,0.0431 -0.1857121,0.0887 -0.2715062,0.13972 -0.1600914,0.091 -0.319056,0.18422 -0.4594918,0.29135 -0.1307189,0.0962 -0.2641195,0.19005 -0.3871227,0.2917 -0.1060037,0.088 -0.2125416,0.17569 -0.316071,0.26505 -0.098412,0.0771 -0.2009928,0.15276 -0.3179982,0.21496 -0.2212406,0.13299 -0.8355184,0.37141 -0.9377299,0.41397 -0.026315,0.011 -0.054434,0.0194 -0.08165,0.0292 -0.1802191,0.0535 -0.3657528,0.0859 -0.5620729,0.0813 -0.2262875,-0.004 -0.4535101,-0.0103 -0.6746028,-0.0489 -0.3327022,-0.0598 -0.6589023,-0.13934 -0.9614596,-0.25817 -0.2265411,-0.0896 -0.4418765,-0.18973 -0.6398806,-0.31052 -0.1583357,-0.091 -0.3197209,-0.17995 -0.4526739,-0.29147 -0.1370676,-0.10913 -0.26457277,-0.22406 -0.38845117,-0.3412 -0.1224314,-0.11006 -0.2511829,-0.21629 -0.38064314,-0.32198 0,0 0.59751221,-0.26631 0.59751221,-0.26631 z"
       inkscape:connector-curvature="0"
       transform="matrix(0.86975051,0,0,0.80510612,1.5542974,55.594145)" />
    <path
       style="opacity:1;fill:#6c5353;fill-opacity:1;stroke:none;stroke-width:3.16499996;stroke-linecap:round;stroke-linejoin:round;stroke-miterlimit:4;stroke-dasharray:none;stroke-dashoffset:0;stroke-opacity:1;paint-order:stroke fill markers;filter:url(#filter2031)"
       id="path1939"
       d="m 0.94268421,290.15356 c 0.22662579,0.24639 0.51109179,0.42993 0.79092719,0.60936 0.5366421,0.34241 1.1068698,0.56875 1.7110114,0.75935 0.5564767,0.1613 1.1359047,0.21815 1.7132763,0.2263 0.4591936,0.005 0.9154768,-0.0533 1.3651957,-0.14139 0.4592392,-0.10097 0.9157089,-0.21376 1.3742728,-0.31786 0.069668,-0.0164 0.1394413,-0.0324 0.2090047,-0.0493 0.1429888,-0.0347 0.2350485,-0.061 0.3779713,-0.0908 0.1669021,-0.0348 0.3360812,-0.0562 0.5043824,-0.0828 0.2684661,-0.0464 0.5406914,-0.0579 0.8124571,-0.0655 0.2304559,4.2e-4 0.4616579,-0.014 0.6917109,0.002 0.218928,0.0151 0.42956,0.083 0.642231,0.13306 0.298748,0.0636 0.59645,0.13322 0.892587,0.20828 0.319453,0.0637 0.636026,0.13763 0.952177,0.21574 0.282111,0.0617 0.557172,0.14952 0.839152,0.21203 0.251507,0.0538 0.508772,0.067 0.765103,0.0739 0.220379,0.0133 0.426444,0.003 0.643029,-0.0376 0.08191,-0.0279 0.16441,-0.0545 0.241423,-0.0945 0.02237,-0.0116 0.08736,-0.0504 0.0655,-0.0378 -0.544928,0.31282 -0.703913,0.4112 -0.46488,0.26458 0.02011,-0.0127 0.04021,-0.0253 0.06032,-0.038 0,0 0.649864,-0.25163 0.649864,-0.25163 v 0 c -0.0205,0.0124 -0.041,0.0247 -0.0615,0.0371 -0.324009,0.21734 -0.661459,0.44309 -1.044367,0.53696 -0.21546,0.033 -0.432066,0.0354 -0.649702,0.0249 -0.257425,-0.0122 -0.515887,-0.029 -0.767646,-0.0878 -0.281232,-0.0656 -0.557275,-0.14999 -0.838857,-0.21415 -0.315188,-0.0809 -0.632994,-0.14832 -0.951158,-0.21643 -0.297059,-0.0742 -0.595855,-0.14184 -0.895568,-0.20447 -0.211748,-0.0473 -0.421744,-0.11072 -0.6397813,-0.12057 -0.2279944,-0.01 -0.4563901,-0.004 -0.684481,-3.7e-4 -0.268976,0.008 -0.5377702,0.0252 -0.8035875,0.0695 -0.3638942,0.0548 -0.7231883,0.1277 -1.0796487,0.21996 -0.4584406,0.10392 -0.9146254,0.21739 -1.374431,0.31503 -0.4526269,0.0836 -0.9116248,0.14164 -1.3729343,0.12933 -0.5775235,-0.0215 -1.1575716,-0.0806 -1.7125727,-0.24976 -0.6020363,-0.19529 -1.1910265,-0.43005 -1.7299359,-0.76665 -0.29171583,-0.17882 -0.58062006,-0.36563 -0.82805761,-0.60423 0,0 0.59751222,-0.36616 0.59751222,-0.36616 z"
       inkscape:connector-curvature="0"
       transform="matrix(0.86975051,0,0,0.80510612,1.5542974,55.594145)" />
    <path
       style="opacity:1;fill:#6c5353;fill-opacity:1;stroke:none;stroke-width:3.16499996;stroke-linecap:round;stroke-linejoin:round;stroke-miterlimit:4;stroke-dasharray:none;stroke-dashoffset:0;stroke-opacity:1;paint-order:stroke fill markers;filter:url(#filter2035)"
       id="path1941"
       d="m 0.66067862,284.31264 c 0.133266,0.22328 0.3111232,0.41335 0.49049618,0.59957 0.2665546,0.27221 0.5795297,0.48751 0.9064556,0.6796 0.3397645,0.20278 0.6919902,0.32886 1.0744526,0.42115 0.4549745,0.0989 0.9216051,0.11941 1.3856612,0.122 0.4866151,0.005 0.9698146,-0.0492 1.4493764,-0.12582 0.3561879,-0.0705 0.7128362,-0.13397 1.07188,-0.18847 0.3252335,-0.0595 0.6497121,-0.12379 0.9724958,-0.1954 0.2904625,-0.0707 0.5799794,-0.14545 0.8706496,-0.21534 0.3010284,-0.0791 0.6047153,-0.14647 0.9111684,-0.20086 0.3044836,-0.0482 0.6087196,-0.0975 0.9153126,-0.13036 0.241826,-0.0214 0.485439,-0.0332 0.728008,-0.0206 0.210198,0.0163 0.421473,0.0415 0.62592,0.0942 0.193561,0.0438 0.37935,0.11315 0.559863,0.19453 0.189038,0.0717 0.367962,0.16762 0.549402,0.25645 0.207606,0.10671 0.397956,0.24282 0.604809,0.35068 0.185585,0.10493 0.381541,0.18264 0.583797,0.2477 0.151268,0.0471 0.303852,0.0887 0.457456,0.12754 0.06037,0.0154 0.121956,0.024 0.183612,0.032 0,0 -0.571679,0.40236 -0.571679,0.40236 v 0 c -0.06243,-0.0108 -0.124732,-0.0223 -0.18587,-0.0393 -0.153248,-0.0409 -0.306011,-0.083 -0.456449,-0.13348 -0.203813,-0.068 -0.399592,-0.15427 -0.586924,-0.26005 -0.204512,-0.11183 -0.398172,-0.24308 -0.60743,-0.34651 -0.179569,-0.0905 -0.35957,-0.18167 -0.547235,-0.25427 -0.17878,-0.078 -0.362986,-0.14113 -0.553561,-0.18393 -0.201655,-0.0465 -0.408385,-0.0733 -0.614912,-0.0851 -0.240126,-0.006 -0.480488,0.004 -0.719589,0.027 -0.3051052,0.0333 -0.6083807,0.0813 -0.9108359,0.13315 -0.3062127,0.0568 -0.6099847,0.12424 -0.9107366,0.20541 -0.2898201,0.0698 -0.5788245,0.14302 -0.8688634,0.21196 -0.3237618,0.068 -0.6477711,0.13536 -0.9739304,0.19108 -0.3566835,0.0534 -0.7104928,0.12056 -1.0654459,0.18391 -0.4797514,0.0711 -0.9629452,0.11765 -1.4486572,0.11217 -0.4695311,-0.002 -0.9417105,-0.0258 -1.4011722,-0.12996 -0.1779006,-0.0426 -0.2254002,-0.0488 -0.392681,-0.10762 -0.2426916,-0.0853 -0.4709865,-0.20491 -0.6959448,-0.32833 -0.3303163,-0.19735 -0.64664705,-0.41962 -0.9200542,-0.69222 -0.18439934,-0.18753 -0.36157704,-0.3825 -0.51222812,-0.59874 0,0 0.60338334,-0.35619 0.60338334,-0.35619 z"
       inkscape:connector-curvature="0"
       transform="matrix(0.86975051,0,0,0.80510612,1.5542974,55.594145)" />
    <path
       style="opacity:1;fill:#6c5353;fill-opacity:1;stroke:none;stroke-width:3.16499996;stroke-linecap:round;stroke-linejoin:round;stroke-miterlimit:4;stroke-dasharray:none;stroke-dashoffset:0;stroke-opacity:1;paint-order:stroke fill markers;filter:url(#filter2039)"
       id="path1943"
       d="m 1.5326941,289.25312 c 0.2511108,0.22323 0.5464189,0.38594 0.8449692,0.53588 0.4499877,0.22051 0.9293227,0.36626 1.414798,0.48396 0.4365053,0.10184 0.8846203,0.13139 1.3312084,0.14587 0.4336976,0.0288 0.8623226,-0.0127 1.2881665,-0.0925 0.4035131,-0.0857 0.7975296,-0.21411 1.17891,-0.37052 0.2596251,-0.11272 0.5222304,-0.2189 0.7875567,-0.31775 0.2367796,-0.0939 0.4822317,-0.16182 0.7285267,-0.22556 0.2651726,-0.0772 0.5414317,-0.1007 0.8148103,-0.13105 0.2658141,-0.0255 0.5304841,-0.0597 0.7969601,-0.0782 0.206758,-0.0135 0.412661,-0.0213 0.618005,0.009 0.23905,0.0392 0.469177,0.10404 0.690095,0.20316 0.240105,0.12353 0.468372,0.26987 0.693211,0.41915 0.181257,0.13078 0.366614,0.25551 0.571052,0.34698 0.190381,0.0907 0.396062,0.13543 0.603544,0.16494 0.246827,0.0344 0.491655,0.0242 0.736327,-0.0174 0.225749,-0.0472 0.442219,-0.12618 0.654767,-0.2143 0.05469,-0.0307 0.114362,-0.0513 0.169935,-0.0802 0.02258,-0.0118 0.08784,-0.0514 0.06575,-0.0388 -0.177956,0.10185 -0.710474,0.40975 -0.533362,0.30644 0.636829,-0.37148 0.428681,-0.27511 0.712756,-0.40355 0,0 -0.545823,0.43578 -0.545823,0.43578 v 0 c -0.01805,0.01 -0.07175,0.0388 -0.05414,0.0285 0.178644,-0.10451 0.71685,-0.41411 0.537294,-0.31118 -0.298141,0.17091 -0.579178,0.36032 -0.895754,0.49057 -0.214418,0.0843 -0.432836,0.15982 -0.660642,0.19894 -0.250349,0.0357 -0.501371,0.0395 -0.752347,0.003 -0.211542,-0.0354 -0.421408,-0.0848 -0.614692,-0.18095 -0.203803,-0.0986 -0.390977,-0.22453 -0.57408,-0.35724 -0.222075,-0.14659 -0.444298,-0.29644 -0.686063,-0.409 -0.220013,-0.0895 -0.446067,-0.15487 -0.682391,-0.18516 -0.202503,-0.0214 -0.405686,-0.0113 -0.608637,0.001 -0.2643018,0.0191 -0.5272174,0.0512 -0.7908769,0.0773 -0.2728875,0.0315 -0.547166,0.0618 -0.8113416,0.1409 -0.2450668,0.0659 -0.488551,0.13719 -0.7245831,0.23115 -0.2628524,0.0983 -0.5218544,0.20647 -0.7808582,0.31436 -0.3828229,0.14755 -0.774755,0.27504 -1.1781927,0.35295 -0.4311145,0.0753 -0.8659731,0.11459 -1.3039751,0.0857 -0.4461225,-0.0227 -0.8940927,-0.0559 -1.3291484,-0.16364 -0.4896234,-0.1211 -0.9730128,-0.27268 -1.4281394,-0.49289 -0.3068686,-0.15169 -0.6060768,-0.31939 -0.87360539,-0.53476 0,0 0.59000589,-0.3706 0.59000589,-0.3706 z"
       inkscape:connector-curvature="0"
       transform="matrix(0.86975051,0,0,0.80510612,1.5542974,55.594145)" />
    <path
       style="opacity:1;fill:#6c5353;fill-opacity:1;stroke:none;stroke-width:3.16499996;stroke-linecap:round;stroke-linejoin:round;stroke-miterlimit:4;stroke-dasharray:none;stroke-dashoffset:0;stroke-opacity:1;paint-order:stroke fill markers;filter:url(#filter2043)"
       id="path1945"
       d="m 1.3552701,292.58897 c 0.00532,0.23496 0.1204357,0.40339 0.2733775,0.57116 0.3878403,0.31713 0.8819906,0.43647 1.3611611,0.53916 0.5797119,0.10499 1.1696343,0.11996 1.7570527,0.1298 0.4670644,0.009 0.9329967,0.006 1.3976101,-0.0446 0.3828102,-0.0542 0.7491812,-0.17785 1.1082967,-0.3165 0.3775903,-0.13587 0.746851,-0.29253 1.1143787,-0.45319 0.3489245,-0.14943 0.7047155,-0.28175 1.0624255,-0.40838 0.275528,-0.0973 0.565207,-0.13041 0.8548376,-0.15009 0.237965,-0.0111 0.476269,-0.008 0.714405,-0.008 0.248506,-0.009 0.492961,0.006 0.735306,0.0625 0.23259,0.0455 0.455593,0.11872 0.674004,0.20913 0.162996,0.0725 0.32834,0.13983 0.491384,0.21214 0.151014,0.064 0.300851,0.12982 0.458632,0.17538 0.177786,0.0529 0.362328,0.0739 0.544401,0.10637 0.139495,0.0249 0.280911,0.0325 0.422277,0.0364 0.136898,0.007 0.269663,-0.0353 0.393096,-0.0907 0.276108,-0.0884 0.861411,-0.44895 -0.206417,0.16164 0,0 0.650977,-0.25306 0.650977,-0.25306 v 0 c -0.332157,0.19334 -0.633393,0.39782 -0.992377,0.52241 -0.132567,0.0475 -0.268787,0.0804 -0.410869,0.0678 -0.143029,-0.006 -0.285611,-0.0185 -0.426295,-0.046 -0.183599,-0.0343 -0.369555,-0.0578 -0.548593,-0.11321 -0.158604,-0.0508 -0.311614,-0.11599 -0.464684,-0.1814 -0.162139,-0.0715 -0.323807,-0.14407 -0.486865,-0.21336 -0.214049,-0.0898 -0.435489,-0.15485 -0.663045,-0.20132 -0.241042,-0.0475 -0.48366,-0.0563 -0.729007,-0.0494 -0.236795,-0.001 -0.4738376,-0.002 -0.7103516,0.011 -0.284809,0.0207 -0.568061,0.0615 -0.837659,0.1603 -0.3556518,0.12625 -0.7094859,0.25806 -1.0555371,0.409 -0.3690932,0.15993 -0.7405272,0.31442 -1.1184895,0.4524 -0.3609875,0.1355 -0.7301807,0.25281 -1.1146692,0.29913 -0.4636265,0.0444 -0.9283631,0.0455 -1.3937425,0.0317 -0.5898081,-0.013 -1.1817334,-0.0322 -1.7632002,-0.1413 -0.4948378,-0.11021 -1.0011386,-0.23654 -1.4050835,-0.56023 -0.15573857,-0.17157 -0.28950987,-0.3634 -0.30710537,-0.60205 0,0 0.62036807,-0.32479 0.62036807,-0.32479 z"
       inkscape:connector-curvature="0"
       transform="matrix(0.86975051,0,0,0.80510612,1.5542974,55.594145)" />
    <path
       style="opacity:1;fill:#917c6f;fill-opacity:1;stroke:none;stroke-width:3.16499996;stroke-linecap:round;stroke-linejoin:round;stroke-miterlimit:4;stroke-dasharray:none;stroke-dashoffset:0;stroke-opacity:1;paint-order:stroke fill markers;filter:url(#filter1933)"
       id="path2047"
       d="m 1.3552701,292.58897 c 0.00532,0.23496 0.1204357,0.40339 0.2733775,0.57116 0.3878403,0.31713 0.8819906,0.43647 1.3611611,0.53916 0.5797119,0.10499 1.1696343,0.11996 1.7570527,0.1298 0.4670644,0.009 0.9329967,0.006 1.3976101,-0.0446 0.3828102,-0.0542 0.7491812,-0.17785 1.1082967,-0.3165 0.3775903,-0.13587 0.746851,-0.29253 1.1143787,-0.45319 0.3489245,-0.14943 0.7047155,-0.28175 1.0624255,-0.40838 0.275528,-0.0973 0.565207,-0.13041 0.8548376,-0.15009 0.237965,-0.0111 0.476269,-0.008 0.714405,-0.008 0.248506,-0.009 0.492961,0.006 0.735306,0.0625 0.23259,0.0455 0.455593,0.11872 0.674004,0.20913 0.162996,0.0725 0.32834,0.13983 0.491384,0.21214 0.151014,0.064 0.300851,0.12982 0.458632,0.17538 0.177786,0.0529 0.362328,0.0739 0.544401,0.10637 0.139495,0.0249 0.280911,0.0325 0.422277,0.0364 0.136898,0.007 0.269663,-0.0353 0.393096,-0.0907 0.276108,-0.0884 0.861411,-0.44895 -0.206417,0.16164 0,0 0.650977,-0.25306 0.650977,-0.25306 v 0 c -0.332157,0.19334 -0.633393,0.39782 -0.992377,0.52241 -0.132567,0.0475 -0.268787,0.0804 -0.410869,0.0678 -0.143029,-0.006 -0.285611,-0.0185 -0.426295,-0.046 -0.183599,-0.0343 -0.369555,-0.0578 -0.548593,-0.11321 -0.158604,-0.0508 -0.311614,-0.11599 -0.464684,-0.1814 -0.162139,-0.0715 -0.323807,-0.14407 -0.486865,-0.21336 -0.214049,-0.0898 -0.435489,-0.15485 -0.663045,-0.20132 -0.241042,-0.0475 -0.48366,-0.0563 -0.729007,-0.0494 -0.236795,-0.001 -0.4738376,-0.002 -0.7103516,0.011 -0.284809,0.0207 -0.568061,0.0615 -0.837659,0.1603 -0.3556518,0.12625 -0.7094859,0.25806 -1.0555371,0.409 -0.3690932,0.15993 -0.7405272,0.31442 -1.1184895,0.4524 -0.3609875,0.1355 -0.7301807,0.25281 -1.1146692,0.29913 -0.4636265,0.0444 -0.9283631,0.0455 -1.3937425,0.0317 -0.5898081,-0.013 -1.1817334,-0.0322 -1.7632002,-0.1413 -0.4948378,-0.11021 -1.0011386,-0.23654 -1.4050835,-0.56023 -0.15573857,-0.17157 -0.28950987,-0.3634 -0.30710537,-0.60205 0,0 0.62036807,-0.32479 0.62036807,-0.32479 z"
       inkscape:connector-curvature="0"
       transform="matrix(0.80510612,0,0,0.80510612,1.5432375,56.905881)" />
    <path
       transform="matrix(0.86975051,0,0,0.80510612,1.0251307,56.123312)"
       inkscape:connector-curvature="0"
       d="m 1.0413708,287.3916 c 0.1176081,0.11491 0.2551573,0.21779 0.3772293,0.33005 0.1241062,0.11556 0.2484061,0.2308 0.3853747,0.3385 0.1321591,0.10874 0.2923851,0.19455 0.4472715,0.28471 0.1943768,0.11834 0.4036794,0.21825 0.6251605,0.30727 0.2989376,0.11812 0.62225,0.19378 0.9535255,0.24561 0.2212065,0.0325 0.4470403,0.0359 0.6718266,0.0374 0.205091,4.3e-4 0.3629633,-0.0398 0.546554,-0.0991 0.3117517,-0.13001 -0.305309,0.12737 -0.4411967,0.18291 -0.02363,0.01 0.045877,-0.021 0.068908,-0.0314 0.068071,-0.0307 0.1354503,-0.0607 0.200945,-0.0943 0.1184375,-0.0596 0.2187768,-0.13409 0.3204464,-0.20751 0.1073549,-0.0876 0.2144381,-0.1753 0.3205731,-0.26369 0.1228206,-0.10211 0.2534039,-0.19917 0.3856506,-0.29481 0.1410073,-0.10901 0.2994564,-0.20437 0.459696,-0.29778 0.3511199,-0.19808 0.7365924,-0.36929 1.1428117,-0.50005 0.1760167,-0.0545 0.3618949,-0.0841 0.5508775,-0.10122 0.218911,-0.0129 0.4386649,-0.0133 0.6581323,-0.0139 0.2377797,0.006 0.4691298,0.0481 0.700737,0.0837 0.2541255,0.044 0.5131395,0.0708 0.7657152,0.11947 0.216422,0.0422 0.415965,0.11704 0.615241,0.18964 0.247381,0.0853 0.498273,0.16504 0.74705,0.24814 0.246424,0.0894 0.473045,0.20389 0.711858,0.30291 0.305751,0.14061 0.642259,0.23449 0.979374,0.3259 0.299581,0.0854 0.612879,0.14243 0.930049,0.17977 0.247012,0.0244 0.496062,0.0367 0.743798,0.014 0.164891,-0.0109 0.320437,-0.0439 0.474,-0.0865 0.03088,-0.0154 0.06802,-0.0215 0.100503,-0.0345 0.01423,-0.006 0.05438,-0.0257 0.04026,-0.0199 -0.54051,0.2226 -0.736354,0.32537 -0.520672,0.21369 0,0 0.65231,-0.18658 0.65231,-0.18658 v 0 c -0.261859,0.12807 -0.529043,0.25549 -0.822947,0.34027 -0.154261,0.0395 -0.314417,0.0607 -0.477103,0.0724 -0.251001,0.0149 -0.502713,0.002 -0.751285,-0.0269 -0.317821,-0.042 -0.630605,-0.10356 -0.93112,-0.19048 -0.34099,-0.0926 -0.678114,-0.19244 -0.990591,-0.33008 -0.237508,-0.0987 -0.464821,-0.21047 -0.710652,-0.29839 -0.249135,-0.0843 -0.501559,-0.16321 -0.750201,-0.24822 -0.196719,-0.07 -0.3949047,-0.14062 -0.6077847,-0.18098 -0.2517955,-0.0473 -0.5092033,-0.0757 -0.7625585,-0.11817 -0.2289247,-0.0352 -0.4590095,-0.0726 -0.6942349,-0.0739 -0.2184654,7.3e-4 -0.4377539,10e-4 -0.6549382,0.0206 -0.1845723,0.0212 -0.365877,0.0548 -0.5363649,0.11168 -0.2682185,0.094 -0.1417053,0.0521 0.3945321,-0.17565 0.028467,-0.0121 -0.057078,0.024 -0.084919,0.0369 -0.09355,0.0431 -0.1857121,0.0887 -0.2715062,0.13972 -0.1600914,0.091 -0.319056,0.18422 -0.4594918,0.29135 -0.1307189,0.0962 -0.2641195,0.19005 -0.3871227,0.2917 -0.1060037,0.088 -0.2125416,0.17569 -0.316071,0.26505 -0.098412,0.0771 -0.2009928,0.15276 -0.3179982,0.21496 -0.2212406,0.13299 -0.8355184,0.37141 -0.9377299,0.41397 -0.026315,0.011 -0.054434,0.0194 -0.08165,0.0292 -0.1802191,0.0535 -0.3657528,0.0859 -0.5620729,0.0813 -0.2262875,-0.004 -0.4535101,-0.0103 -0.6746028,-0.0489 -0.3327022,-0.0598 -0.6589023,-0.13934 -0.9614596,-0.25817 -0.2265411,-0.0896 -0.4418765,-0.18973 -0.6398806,-0.31052 -0.1583357,-0.091 -0.3197209,-0.17995 -0.4526739,-0.29147 -0.1370676,-0.10913 -0.26457277,-0.22406 -0.38845117,-0.3412 -0.1224314,-0.11006 -0.2511829,-0.21629 -0.38064314,-0.32198 0,0 0.59751221,-0.26631 0.59751221,-0.26631 z"
       id="path2049"
       style="opacity:1;fill:#917c6f;fill-opacity:1;stroke:none;stroke-width:2.69921207;stroke-linecap:round;stroke-linejoin:round;stroke-miterlimit:4;stroke-dasharray:none;stroke-dashoffset:0;stroke-opacity:1;paint-order:stroke fill markers;filter:url(#filter2027)" />
    <path
       transform="matrix(0.86975051,0,0,0.80510612,1.0251307,56.123312)"
       inkscape:connector-curvature="0"
       d="m 0.94268421,290.15356 c 0.22662579,0.24639 0.51109179,0.42993 0.79092719,0.60936 0.5366421,0.34241 1.1068698,0.56875 1.7110114,0.75935 0.5564767,0.1613 1.1359047,0.21815 1.7132763,0.2263 0.4591936,0.005 0.9154768,-0.0533 1.3651957,-0.14139 0.4592392,-0.10097 0.9157089,-0.21376 1.3742728,-0.31786 0.069668,-0.0164 0.1394413,-0.0324 0.2090047,-0.0493 0.1429888,-0.0347 0.2350485,-0.061 0.3779713,-0.0908 0.1669021,-0.0348 0.3360812,-0.0562 0.5043824,-0.0828 0.2684661,-0.0464 0.5406914,-0.0579 0.8124571,-0.0655 0.2304559,4.2e-4 0.4616579,-0.014 0.6917109,0.002 0.218928,0.0151 0.42956,0.083 0.642231,0.13306 0.298748,0.0636 0.59645,0.13322 0.892587,0.20828 0.319453,0.0637 0.636026,0.13763 0.952177,0.21574 0.282111,0.0617 0.557172,0.14952 0.839152,0.21203 0.251507,0.0538 0.508772,0.067 0.765103,0.0739 0.220379,0.0133 0.426444,0.003 0.643029,-0.0376 0.08191,-0.0279 0.16441,-0.0545 0.241423,-0.0945 0.02237,-0.0116 0.08736,-0.0504 0.0655,-0.0378 -0.544928,0.31282 -0.703913,0.4112 -0.46488,0.26458 0.02011,-0.0127 0.04021,-0.0253 0.06032,-0.038 0,0 0.649864,-0.25163 0.649864,-0.25163 v 0 c -0.0205,0.0124 -0.041,0.0247 -0.0615,0.0371 -0.324009,0.21734 -0.661459,0.44309 -1.044367,0.53696 -0.21546,0.033 -0.432066,0.0354 -0.649702,0.0249 -0.257425,-0.0122 -0.515887,-0.029 -0.767646,-0.0878 -0.281232,-0.0656 -0.557275,-0.14999 -0.838857,-0.21415 -0.315188,-0.0809 -0.632994,-0.14832 -0.951158,-0.21643 -0.297059,-0.0742 -0.595855,-0.14184 -0.895568,-0.20447 -0.211748,-0.0473 -0.421744,-0.11072 -0.6397813,-0.12057 -0.2279944,-0.01 -0.4563901,-0.004 -0.684481,-3.7e-4 -0.268976,0.008 -0.5377702,0.0252 -0.8035875,0.0695 -0.3638942,0.0548 -0.7231883,0.1277 -1.0796487,0.21996 -0.4584406,0.10392 -0.9146254,0.21739 -1.374431,0.31503 -0.4526269,0.0836 -0.9116248,0.14164 -1.3729343,0.12933 -0.5775235,-0.0215 -1.1575716,-0.0806 -1.7125727,-0.24976 -0.6020363,-0.19529 -1.1910265,-0.43005 -1.7299359,-0.76665 -0.29171583,-0.17882 -0.58062006,-0.36563 -0.82805761,-0.60423 0,0 0.59751222,-0.36616 0.59751222,-0.36616 z"
       id="path2051"
       style="opacity:1;fill:#917c6f;fill-opacity:1;stroke:none;stroke-width:3.16499996;stroke-linecap:round;stroke-linejoin:round;stroke-miterlimit:4;stroke-dasharray:none;stroke-dashoffset:0;stroke-opacity:1;paint-order:stroke fill markers;filter:url(#filter2031)" />
    <path
       transform="matrix(0.86975051,0,0,0.80510612,1.0251307,56.123312)"
       inkscape:connector-curvature="0"
       d="m 0.66067862,284.31264 c 0.133266,0.22328 0.3111232,0.41335 0.49049618,0.59957 0.2665546,0.27221 0.5795297,0.48751 0.9064556,0.6796 0.3397645,0.20278 0.6919902,0.32886 1.0744526,0.42115 0.4549745,0.0989 0.9216051,0.11941 1.3856612,0.122 0.4866151,0.005 0.9698146,-0.0492 1.4493764,-0.12582 0.3561879,-0.0705 0.7128362,-0.13397 1.07188,-0.18847 0.3252335,-0.0595 0.6497121,-0.12379 0.9724958,-0.1954 0.2904625,-0.0707 0.5799794,-0.14545 0.8706496,-0.21534 0.3010284,-0.0791 0.6047153,-0.14647 0.9111684,-0.20086 0.3044836,-0.0482 0.6087196,-0.0975 0.9153126,-0.13036 0.241826,-0.0214 0.485439,-0.0332 0.728008,-0.0206 0.210198,0.0163 0.421473,0.0415 0.62592,0.0942 0.193561,0.0438 0.37935,0.11315 0.559863,0.19453 0.189038,0.0717 0.367962,0.16762 0.549402,0.25645 0.207606,0.10671 0.397956,0.24282 0.604809,0.35068 0.185585,0.10493 0.381541,0.18264 0.583797,0.2477 0.151268,0.0471 0.303852,0.0887 0.457456,0.12754 0.06037,0.0154 0.121956,0.024 0.183612,0.032 0,0 -0.571679,0.40236 -0.571679,0.40236 v 0 c -0.06243,-0.0108 -0.124732,-0.0223 -0.18587,-0.0393 -0.153248,-0.0409 -0.306011,-0.083 -0.456449,-0.13348 -0.203813,-0.068 -0.399592,-0.15427 -0.586924,-0.26005 -0.204512,-0.11183 -0.398172,-0.24308 -0.60743,-0.34651 -0.179569,-0.0905 -0.35957,-0.18167 -0.547235,-0.25427 -0.17878,-0.078 -0.362986,-0.14113 -0.553561,-0.18393 -0.201655,-0.0465 -0.408385,-0.0733 -0.614912,-0.0851 -0.240126,-0.006 -0.480488,0.004 -0.719589,0.027 -0.3051052,0.0333 -0.6083807,0.0813 -0.9108359,0.13315 -0.3062127,0.0568 -0.6099847,0.12424 -0.9107366,0.20541 -0.2898201,0.0698 -0.5788245,0.14302 -0.8688634,0.21196 -0.3237618,0.068 -0.6477711,0.13536 -0.9739304,0.19108 -0.3566835,0.0534 -0.7104928,0.12056 -1.0654459,0.18391 -0.4797514,0.0711 -0.9629452,0.11765 -1.4486572,0.11217 -0.4695311,-0.002 -0.9417105,-0.0258 -1.4011722,-0.12996 -0.1779006,-0.0426 -0.2254002,-0.0488 -0.392681,-0.10762 -0.2426916,-0.0853 -0.4709865,-0.20491 -0.6959448,-0.32833 -0.3303163,-0.19735 -0.64664705,-0.41962 -0.9200542,-0.69222 -0.18439934,-0.18753 -0.36157704,-0.3825 -0.51222812,-0.59874 0,0 0.60338334,-0.35619 0.60338334,-0.35619 z"
       id="path2053"
       style="opacity:1;fill:#917c6f;fill-opacity:1;stroke:none;stroke-width:3.16499996;stroke-linecap:round;stroke-linejoin:round;stroke-miterlimit:4;stroke-dasharray:none;stroke-dashoffset:0;stroke-opacity:1;paint-order:stroke fill markers;filter:url(#filter2035)" />
    <path
       transform="matrix(0.86975051,0,0,0.80510612,1.0251307,56.123312)"
       inkscape:connector-curvature="0"
       d="m 1.5326941,289.25312 c 0.2511108,0.22323 0.5464189,0.38594 0.8449692,0.53588 0.4499877,0.22051 0.9293227,0.36626 1.414798,0.48396 0.4365053,0.10184 0.8846203,0.13139 1.3312084,0.14587 0.4336976,0.0288 0.8623226,-0.0127 1.2881665,-0.0925 0.4035131,-0.0857 0.7975296,-0.21411 1.17891,-0.37052 0.2596251,-0.11272 0.5222304,-0.2189 0.7875567,-0.31775 0.2367796,-0.0939 0.4822317,-0.16182 0.7285267,-0.22556 0.2651726,-0.0772 0.5414317,-0.1007 0.8148103,-0.13105 0.2658141,-0.0255 0.5304841,-0.0597 0.7969601,-0.0782 0.206758,-0.0135 0.412661,-0.0213 0.618005,0.009 0.23905,0.0392 0.469177,0.10404 0.690095,0.20316 0.240105,0.12353 0.468372,0.26987 0.693211,0.41915 0.181257,0.13078 0.366614,0.25551 0.571052,0.34698 0.190381,0.0907 0.396062,0.13543 0.603544,0.16494 0.246827,0.0344 0.491655,0.0242 0.736327,-0.0174 0.225749,-0.0472 0.442219,-0.12618 0.654767,-0.2143 0.05469,-0.0307 0.114362,-0.0513 0.169935,-0.0802 0.02258,-0.0118 0.08784,-0.0514 0.06575,-0.0388 -0.177956,0.10185 -0.710474,0.40975 -0.533362,0.30644 0.636829,-0.37148 0.428681,-0.27511 0.712756,-0.40355 0,0 -0.545823,0.43578 -0.545823,0.43578 v 0 c -0.01805,0.01 -0.07175,0.0388 -0.05414,0.0285 0.178644,-0.10451 0.71685,-0.41411 0.537294,-0.31118 -0.298141,0.17091 -0.579178,0.36032 -0.895754,0.49057 -0.214418,0.0843 -0.432836,0.15982 -0.660642,0.19894 -0.250349,0.0357 -0.501371,0.0395 -0.752347,0.003 -0.211542,-0.0354 -0.421408,-0.0848 -0.614692,-0.18095 -0.203803,-0.0986 -0.390977,-0.22453 -0.57408,-0.35724 -0.222075,-0.14659 -0.444298,-0.29644 -0.686063,-0.409 -0.220013,-0.0895 -0.446067,-0.15487 -0.682391,-0.18516 -0.202503,-0.0214 -0.405686,-0.0113 -0.608637,0.001 -0.2643018,0.0191 -0.5272174,0.0512 -0.7908769,0.0773 -0.2728875,0.0315 -0.547166,0.0618 -0.8113416,0.1409 -0.2450668,0.0659 -0.488551,0.13719 -0.7245831,0.23115 -0.2628524,0.0983 -0.5218544,0.20647 -0.7808582,0.31436 -0.3828229,0.14755 -0.774755,0.27504 -1.1781927,0.35295 -0.4311145,0.0753 -0.8659731,0.11459 -1.3039751,0.0857 -0.4461225,-0.0227 -0.8940927,-0.0559 -1.3291484,-0.16364 -0.4896234,-0.1211 -0.9730128,-0.27268 -1.4281394,-0.49289 -0.3068686,-0.15169 -0.6060768,-0.31939 -0.87360539,-0.53476 0,0 0.59000589,-0.3706 0.59000589,-0.3706 z"
       id="path2055"
       style="opacity:1;fill:#917c6f;fill-opacity:1;stroke:none;stroke-width:3.16499996;stroke-linecap:round;stroke-linejoin:round;stroke-miterlimit:4;stroke-dasharray:none;stroke-dashoffset:0;stroke-opacity:1;paint-order:stroke fill markers;filter:url(#filter2039)" />
    <path
       transform="matrix(0.86975051,0,0,0.80510612,1.0251307,56.123312)"
       inkscape:connector-curvature="0"
       d="m 1.3552701,292.58897 c 0.00532,0.23496 0.1204357,0.40339 0.2733775,0.57116 0.3878403,0.31713 0.8819906,0.43647 1.3611611,0.53916 0.5797119,0.10499 1.1696343,0.11996 1.7570527,0.1298 0.4670644,0.009 0.9329967,0.006 1.3976101,-0.0446 0.3828102,-0.0542 0.7491812,-0.17785 1.1082967,-0.3165 0.3775903,-0.13587 0.746851,-0.29253 1.1143787,-0.45319 0.3489245,-0.14943 0.7047155,-0.28175 1.0624255,-0.40838 0.275528,-0.0973 0.565207,-0.13041 0.8548376,-0.15009 0.237965,-0.0111 0.476269,-0.008 0.714405,-0.008 0.248506,-0.009 0.492961,0.006 0.735306,0.0625 0.23259,0.0455 0.455593,0.11872 0.674004,0.20913 0.162996,0.0725 0.32834,0.13983 0.491384,0.21214 0.151014,0.064 0.300851,0.12982 0.458632,0.17538 0.177786,0.0529 0.362328,0.0739 0.544401,0.10637 0.139495,0.0249 0.280911,0.0325 0.422277,0.0364 0.136898,0.007 0.269663,-0.0353 0.393096,-0.0907 0.276108,-0.0884 0.861411,-0.44895 -0.206417,0.16164 0,0 0.650977,-0.25306 0.650977,-0.25306 v 0 c -0.332157,0.19334 -0.633393,0.39782 -0.992377,0.52241 -0.132567,0.0475 -0.268787,0.0804 -0.410869,0.0678 -0.143029,-0.006 -0.285611,-0.0185 -0.426295,-0.046 -0.183599,-0.0343 -0.369555,-0.0578 -0.548593,-0.11321 -0.158604,-0.0508 -0.311614,-0.11599 -0.464684,-0.1814 -0.162139,-0.0715 -0.323807,-0.14407 -0.486865,-0.21336 -0.214049,-0.0898 -0.435489,-0.15485 -0.663045,-0.20132 -0.241042,-0.0475 -0.48366,-0.0563 -0.729007,-0.0494 -0.236795,-0.001 -0.4738376,-0.002 -0.7103516,0.011 -0.284809,0.0207 -0.568061,0.0615 -0.837659,0.1603 -0.3556518,0.12625 -0.7094859,0.25806 -1.0555371,0.409 -0.3690932,0.15993 -0.7405272,0.31442 -1.1184895,0.4524 -0.3609875,0.1355 -0.7301807,0.25281 -1.1146692,0.29913 -0.4636265,0.0444 -0.9283631,0.0455 -1.3937425,0.0317 -0.5898081,-0.013 -1.1817334,-0.0322 -1.7632002,-0.1413 -0.4948378,-0.11021 -1.0011386,-0.23654 -1.4050835,-0.56023 -0.15573857,-0.17157 -0.28950987,-0.3634 -0.30710537,-0.60205 0,0 0.62036807,-0.32479 0.62036807,-0.32479 z"
       id="path2057"
       style="opacity:1;fill:#917c6f;fill-opacity:1;stroke:none;stroke-width:3.16499996;stroke-linecap:round;stroke-linejoin:round;stroke-miterlimit:4;stroke-dasharray:none;stroke-dashoffset:0;stroke-opacity:1;paint-order:stroke fill markers;filter:url(#filter2043)" />
  </g>
</svg>
