<?xml version="1.0" encoding="UTF-8" standalone="no"?>
<svg
   viewBox="0 0 512 512"
   version="1.1"
   id="svg9"
   sodipodi:docname="auth_icon.svg"
   xml:space="preserve"
   inkscape:version="1.3.2 (091e20e, 2023-11-25, custom)"
   xmlns:inkscape="http://www.inkscape.org/namespaces/inkscape"
   xmlns:sodipodi="http://sodipodi.sourceforge.net/DTD/sodipodi-0.dtd"
   xmlns="http://www.w3.org/2000/svg"
   xmlns:svg="http://www.w3.org/2000/svg"><defs
     id="defs9" /><sodipodi:namedview
     id="namedview9"
     pagecolor="#ffffff"
     bordercolor="#666666"
     borderopacity="1.0"
     inkscape:showpageshadow="2"
     inkscape:pageopacity="0.0"
     inkscape:pagecheckerboard="0"
     inkscape:deskcolor="#d1d1d1"
     inkscape:zoom="1.6862839"
     inkscape:cx="341.28297"
     inkscape:cy="246.9928"
     inkscape:window-width="2560"
     inkscape:window-height="1417"
     inkscape:window-x="-8"
     inkscape:window-y="-8"
     inkscape:window-maximized="1"
     inkscape:current-layer="svg9" /><path
     d="m 459.48587,325.05039 a 7.9023362,7.9023362 0 0 0 -9.32728,6.15918 30.495552,30.495552 0 1 1 -29.87227,-36.64646 7.9035521,7.9035521 0 0 0 0,-15.8071 46.299738,46.299738 0 1 0 45.35873,55.62167 7.9035521,7.9035521 0 0 0 -6.15918,-9.32729 z"
     id="path1"
     style="stroke-width:1;fill:#3ab4d7;fill-opacity:1" /><path
     d="m 448.87444,289.09227 -27.98781,31.46587 -7.46776,-7.84276 a 7.9035521,7.9035521 0 1 0 -11.44921,10.89827 l 13.39007,14.0648 a 7.9074431,7.9074431 0 0 0 5.72461,2.45326 c 0.044,0 0.0891,0 0.13375,-10e-4 a 7.9018498,7.9018498 0 0 0 5.77093,-2.64915 l 33.69576,-37.88257 a 7.9036042,7.9036042 0 1 0 -11.81022,-10.5065 z"
     id="path2"
     style="stroke-width:1;fill:#3ab4d7;fill-opacity:1" /><path
     d="m 459.48587,446.21221 a 7.8996612,7.8996612 0 0 0 -9.32728,6.15918 30.495552,30.495552 0 1 1 -29.87227,-36.64646 7.9035521,7.9035521 0 0 0 0,-15.8071 46.299738,46.299738 0 1 0 45.35873,55.62167 7.9035521,7.9035521 0 0 0 -6.15918,-9.32729 z"
     id="path3"
     style="stroke-width:1;fill:#3ab4d7;fill-opacity:1" /><path
     d="m 413.41887,433.8772 a 7.9035521,7.9035521 0 1 0 -11.44921,10.89827 l 13.39007,14.06382 a 7.9062272,7.9062272 0 0 0 5.72461,2.45436 c 0.044,0 0.0891,0 0.13375,-0.001 a 7.9013635,7.9013635 0 0 0 5.77093,-2.64914 l 33.69576,-37.88258 a 7.9036042,7.9036042 0 1 0 -11.81022,-10.5065 l -27.98781,31.46587 z"
     id="path4"
     style="stroke-width:1;fill:#3ab4d7;fill-opacity:1" /><path
     d="M 312.73296,407.32382 H 79.833521 a 36.87068,36.87068 0 0 0 0,73.74136 H 312.73296 a 36.87068,36.87068 0 0 0 0,-73.74136 z M 124.43813,451.49033 H 95.767573 a 7.29559,7.29559 0 0 1 0,-14.59118 h 28.670557 a 7.29559,7.29559 0 0 1 0,14.59118 z m 57.45396,0 h -28.67056 a 7.29559,7.29559 0 0 1 0,-14.59118 h 28.67056 a 7.29559,7.29559 0 0 1 0,14.59118 z m 57.45396,0 h -28.67056 a 7.29559,7.29559 0 0 1 0,-14.59118 h 28.67056 a 7.29559,7.29559 0 0 1 0,14.59118 z m 57.45274,0 h -28.66934 a 7.29559,7.29559 0 0 1 0,-14.59118 h 28.66934 a 7.29559,7.29559 0 0 1 0,14.59118 z"
     id="path7"
     style="stroke-width:1;fill:#3ab4d7;fill-opacity:1" /><path
     d="M 312.73296,293.48701 H 79.833521 a 36.870679,36.870679 0 0 0 -36.870314,36.87068 v 0 a 36.870436,36.870436 0 0 0 36.870314,36.87044 H 312.73296 a 36.870071,36.870071 0 0 0 36.87031,-36.87044 v 0 A 36.870436,36.870436 0 0 0 312.73296,293.48701 Z M 124.43813,337.65352 H 95.767573 a 7.2955866,7.2955866 0 1 1 0,-14.59117 h 28.670557 a 7.2955866,7.2955866 0 1 1 0,14.59117 z m 57.45396,0 h -28.67056 a 7.2955866,7.2955866 0 1 1 0,-14.59117 h 28.67056 a 7.2955866,7.2955866 0 0 1 0,14.59117 z m 57.45396,0 h -28.67056 a 7.2955866,7.2955866 0 1 1 0,-14.59117 h 28.67056 a 7.2955866,7.2955866 0 0 1 0,14.59117 z m 57.45274,0 h -28.66934 a 7.2955866,7.2955866 0 0 1 0,-14.59117 h 28.66934 a 7.2955866,7.2955866 0 0 1 0,14.59117 z"
     id="path8"
     style="stroke-width:1;fill:#3ab4d7;fill-opacity:1" /><path
     d="M 196.92987,13.176835 A 63.413968,63.413968 0 0 0 133.5874,76.518091 V 78.8162 a 4.7144081,4.7144081 0 0 1 -4.7093,4.709302 H 118.05935 A 27.136056,27.136056 0 0 0 90.953823,110.63104 V 228.1323 a 27.135691,27.135691 0 0 0 27.105527,27.10432 h 157.7408 A 27.135691,27.135691 0 0 0 302.90568,228.1323 V 110.63067 A 27.136056,27.136056 0 0 0 275.80015,83.525137 H 260.2721 v -7.00583 A 63.41409,63.41409 0 0 0 196.92987,13.176835 Z m 14.25388,161.343605 a 10.354748,10.354748 0 0 0 -4.02778,8.1257 v 12.73396 a 10.225981,10.225981 0 1 1 -20.45196,0 v -12.72448 a 10.007113,10.007113 0 0 0 -3.81279,-7.96836 23.092842,23.092842 0 1 1 28.29289,-0.16682 z m 10.47913,-90.995303 h -46.01667 a 3.4532443,3.4532443 0 0 1 -3.44947,-3.449475 v -1.994127 a 24.733011,24.733011 0 0 1 49.46602,-0.0011 z"
     id="path9"
     style="stroke-width:1;fill:#3ab4d7;fill-opacity:1" /></svg>
