<?xml version="1.0" encoding="UTF-8" standalone="no"?>
<svg
   fill="#000000"
   height="24"
   viewBox="0 0 24 24"
   width="24"
   version="1.1"
   id="svg6"
   sodipodi:docname="ic_locked.svg"
   inkscape:version="1.3.2 (091e20e, 2023-11-25, custom)"
   xml:space="preserve"
   xmlns:inkscape="http://www.inkscape.org/namespaces/inkscape"
   xmlns:sodipodi="http://sodipodi.sourceforge.net/DTD/sodipodi-0.dtd"
   xmlns="http://www.w3.org/2000/svg"
   xmlns:svg="http://www.w3.org/2000/svg"
   xmlns:rdf="http://www.w3.org/1999/02/22-rdf-syntax-ns#"
   xmlns:cc="http://creativecommons.org/ns#"
   xmlns:dc="http://purl.org/dc/elements/1.1/"><metadata
     id="metadata12"><rdf:RDF><cc:Work
         rdf:about=""><dc:format>image/svg+xml</dc:format><dc:type
           rdf:resource="http://purl.org/dc/dcmitype/StillImage" /><dc:title /></cc:Work></rdf:RDF></metadata><defs
     id="defs10" /><sodipodi:namedview
     pagecolor="#ffffff"
     bordercolor="#666666"
     borderopacity="1"
     objecttolerance="10"
     gridtolerance="10"
     guidetolerance="10"
     inkscape:pageopacity="0"
     inkscape:pageshadow="2"
     inkscape:window-width="2560"
     inkscape:window-height="1417"
     id="namedview8"
     showgrid="false"
     inkscape:zoom="27.812867"
     inkscape:cx="-2.3190706"
     inkscape:cy="9.1144866"
     inkscape:window-x="-8"
     inkscape:window-y="-8"
     inkscape:window-maximized="1"
     inkscape:current-layer="svg6"
     inkscape:showpageshadow="2"
     inkscape:pagecheckerboard="0"
     inkscape:deskcolor="#d1d1d1" /><path
     d="M0 0h24v24H0z"
     fill="none"
     id="path4" /><path
     d="M 18,8.5000002 H 17 V 6.5 c 0,-2.7999999 -2.2,-5 -5,-5 -2.7999997,0 -5.0000001,2.2000001 -5.0000001,5 v 2.0000002 h -1 c -1.1,0 -2,0.8999998 -2,1.9999998 v 10 c 0,1.1 0.9,2 2,2 H 18 c 1.1,0 2,-0.9 2,-2 v -10 c 0,-1.1000002 -0.9,-2 -2,-1.9999998 z m -6,-5.1 c 1.7,0 3.1,1.4 3.1,3.0999999 v 2.0000001 l -6.2080505,-0.00636 0.00805,-1.9936442 v 0 C 8.9000003,4.8 10.3,3.4000001 12,3.4000002 Z M 18,20.5 H 5.9999999 v -10 H 18 Z m -6,-3 c 1.1,0 2,-0.9 2,-2 0,-1.1 -0.9,-2 -2,-2 -1.1,0 -2,0.9 -2,2 0,1.1 0.9,2 2,2 z"
     id="Shape"
     style="fill:#f1f1f1;fill-rule:evenodd;stroke:none;stroke-width:1;fill-opacity:1"
     sodipodi:nodetypes="scssscssssssssssccccscccccsssss" /></svg>
