<?xml version="1.0" encoding="UTF-8" standalone="no"?>
<!-- Created with Inkscape (http://www.inkscape.org/) -->

<svg
   xmlns:dc="http://purl.org/dc/elements/1.1/"
   xmlns:cc="http://creativecommons.org/ns#"
   xmlns:rdf="http://www.w3.org/1999/02/22-rdf-syntax-ns#"
   xmlns:svg="http://www.w3.org/2000/svg"
   xmlns="http://www.w3.org/2000/svg"
   xmlns:sodipodi="http://sodipodi.sourceforge.net/DTD/sodipodi-0.dtd"
   xmlns:inkscape="http://www.inkscape.org/namespaces/inkscape"
   width="44"
   height="44"
   viewBox="0 0 11.641666 11.641667"
   version="1.1"
   id="svg8"
   inkscape:version="0.92.4 (5da689c313, 2019-01-14)"
   sodipodi:docname="icon_pump_bg.svg">
  <defs
     id="defs2" />
  <sodipodi:namedview
     id="base"
     pagecolor="#454545"
     bordercolor="#666666"
     borderopacity="1.0"
     inkscape:pageopacity="0"
     inkscape:pageshadow="2"
     inkscape:zoom="16"
     inkscape:cx="23.363233"
     inkscape:cy="25.899524"
     inkscape:document-units="mm"
     inkscape:current-layer="layer1"
     showgrid="false"
     units="px"
     inkscape:snap-global="false"
     inkscape:window-width="1718"
     inkscape:window-height="1368"
     inkscape:window-x="-7"
     inkscape:window-y="0"
     inkscape:window-maximized="0"
     inkscape:pagecheckerboard="false" />
  <metadata
     id="metadata5">
    <rdf:RDF>
      <cc:Work
         rdf:about="">
        <dc:format>image/svg+xml</dc:format>
        <dc:type
           rdf:resource="http://purl.org/dc/dcmitype/StillImage" />
        <dc:title></dc:title>
      </cc:Work>
    </rdf:RDF>
  </metadata>
  <g
     inkscape:label="Calque 1"
     inkscape:groupmode="layer"
     id="layer1"
     transform="translate(0,-285.35832)">
    <path
       style="color:#000000;font-style:normal;font-variant:normal;font-weight:normal;font-stretch:normal;font-size:medium;line-height:normal;font-family:sans-serif;font-variant-ligatures:normal;font-variant-position:normal;font-variant-caps:normal;font-variant-numeric:normal;font-variant-alternates:normal;font-feature-settings:normal;text-indent:0;text-align:start;text-decoration:none;text-decoration-line:none;text-decoration-style:solid;text-decoration-color:#000000;letter-spacing:normal;word-spacing:normal;text-transform:none;writing-mode:lr-tb;direction:ltr;text-orientation:mixed;dominant-baseline:auto;baseline-shift:baseline;text-anchor:start;white-space:normal;shape-padding:0;clip-rule:nonzero;display:inline;overflow:visible;visibility:visible;opacity:1;isolation:auto;mix-blend-mode:normal;color-interpolation:sRGB;color-interpolation-filters:linearRGB;solid-color:#000000;solid-opacity:1;vector-effect:none;fill:#e7e7e7;fill-opacity:1;fill-rule:nonzero;stroke:none;stroke-width:0.60359627;stroke-linecap:butt;stroke-linejoin:miter;stroke-miterlimit:4;stroke-dasharray:none;stroke-dashoffset:0;stroke-opacity:1;color-rendering:auto;image-rendering:auto;shape-rendering:auto;text-rendering:auto;enable-background:accumulate"
       d="m 5.8053571,287.96099 c -1.3774065,0 -2.553855,0.87348 -3.012227,2.09383 -0.6688629,-0.35203 -1.3625618,-0.52719 -2.01221657,-0.62008 v -0.71483 H 0.17818667 v 3.94047 h 0.60272686 v -0.6379 c 1.23720777,0.13929 1.99663317,0.59076 2.45171467,1.0835 0.059314,0.0789 0.1219356,0.15489 0.1880883,0.22795 0.0092,0.0125 0.021169,0.025 0.030019,0.0375 l 0.00234,-0.002 c 0.5883974,0.63085 1.4243032,1.02815 2.3522765,1.02815 1.3691749,0 2.5381489,-0.86195 3.0014391,-2.07037 0.6759056,0.34317 1.4037229,0.53139 2.0539619,0.62758 v 0.71624 h 0.602727 v -3.94282 h -0.602724 v 0.64213 c -1.2345662,-0.13886 -1.9984625,-0.58542 -2.4540597,-1.07693 -4.592e-4,-6.4e-4 -9.439e-4,-9.1e-4 -0.00141,-0.002 -0.5853338,-0.80476 -1.5317396,-1.33069 -2.599934,-1.33069 z m 0,0.6046 c 0.7454864,0 1.414574,0.31098 1.8897951,0.80911 0.524739,0.7426 1.5246561,1.43724 3.1656058,1.60696 v 1.40011 c -0.779073,-0.0857 -1.6180817,-0.38642 -2.4887695,-0.84054 l -0.022984,0.23078 c -0.2671059,1.16019 -1.3001583,2.02159 -2.5436481,2.02159 -0.7531934,0 -1.4287401,-0.31739 -1.9052736,-0.82411 -0.068071,-0.0921 -0.1409679,-0.18362 -0.2242047,-0.27299 -0.3046597,-0.42727 -0.4854651,-0.94926 -0.4854651,-1.51596 0,-1.44744 1.1675079,-2.61495 2.6149441,-2.61495 z m -5.02444357,1.47891 c 0.61572767,0.0951 1.25334647,0.27007 1.85227107,0.60883 -0.028577,0.17196 -0.047374,0.34733 -0.047374,0.52721 0,0.26657 0.036037,0.52417 0.097562,0.77205 -0.5043602,-0.26203 -1.132906,-0.45775 -1.90245919,-0.538 z"
       id="path4571"
       inkscape:connector-curvature="0" />
  </g>
</svg>
