<?xml version="1.0" encoding="UTF-8" standalone="no"?>
<svg
   height="24"
   viewBox="0 0 24 24"
   width="24"
   version="1.1"
   id="svg1"
   sodipodi:docname="icon_door.svg"
   inkscape:version="1.4.2 (ebf0e94, 2025-05-08)"
   xmlns:inkscape="http://www.inkscape.org/namespaces/inkscape"
   xmlns:sodipodi="http://sodipodi.sourceforge.net/DTD/sodipodi-0.dtd"
   xmlns="http://www.w3.org/2000/svg"
   xmlns:svg="http://www.w3.org/2000/svg">
  <defs
     id="defs1" />
  <sodipodi:namedview
     id="namedview1"
     pagecolor="#ffffff"
     bordercolor="#666666"
     borderopacity="1.0"
     inkscape:showpageshadow="2"
     inkscape:pageopacity="0.0"
     inkscape:pagecheckerboard="0"
     inkscape:deskcolor="#d1d1d1"
     inkscape:zoom="17.191534"
     inkscape:cx="8.5798046"
     inkscape:cy="11.837222"
     inkscape:window-width="3440"
     inkscape:window-height="1369"
     inkscape:window-x="3832"
     inkscape:window-y="500"
     inkscape:window-maximized="1"
     inkscape:current-layer="svg1" />
  <path
     d="M5 5v14a1 1 0 0 0 1 1h3v-2H7V6h2V4H6a1 1 0 0 0-1 1zm14.242-.97-8-2A1 1 0 0 0 10 3v18a.998.998 0 0 0 1.242.97l8-2A1 1 0 0 0 20 19V5a1 1 0 0 0-.758-.97zM15 12.188a1.001 1.001 0 0 1-2 0v-.377a1 1 0 1 1 2 .001v.376z"
     id="path1"
     style="fill:#ececec" />
</svg>
