<?xml version="1.0" encoding="UTF-8" standalone="no"?>
<svg
   viewBox="0 0 24 24"
   version="1.1"
   id="svg1"
   sodipodi:docname="icon_gas.svg"
   inkscape:version="1.4.2 (ebf0e94, 2025-05-08)"
   xmlns:inkscape="http://www.inkscape.org/namespaces/inkscape"
   xmlns:sodipodi="http://sodipodi.sourceforge.net/DTD/sodipodi-0.dtd"
   xmlns="http://www.w3.org/2000/svg"
   xmlns:svg="http://www.w3.org/2000/svg"
   xmlns:rdf="http://www.w3.org/1999/02/22-rdf-syntax-ns#"
   xmlns:cc="http://creativecommons.org/ns#"
   xmlns:dc="http://purl.org/dc/elements/1.1/">
  <defs
     id="defs1" />
  <sodipodi:namedview
     id="namedview1"
     pagecolor="#ffffff"
     bordercolor="#666666"
     borderopacity="1.0"
     inkscape:showpageshadow="2"
     inkscape:pageopacity="0.0"
     inkscape:pagecheckerboard="0"
     inkscape:deskcolor="#d1d1d1"
     inkscape:zoom="24.3125"
     inkscape:cx="8.7403599"
     inkscape:cy="11.742931"
     inkscape:window-width="3440"
     inkscape:window-height="1369"
     inkscape:window-x="3832"
     inkscape:window-y="500"
     inkscape:window-maximized="1"
     inkscape:current-layer="svg1" />
  <title
     id="title1">meter-gas</title>
  <path
     d="M16 4H15V2H13V4H11V2H9V4H8C5.79 4 4 5.79 4 8V18C4 20.21 5.79 22 8 22H16C18.21 22 20 20.21 20 18V8C20 5.79 18.21 4 16 4M12 18C10.62 18 9.5 16.9 9.5 15.54C9.5 14.45 9.93 14.15 12 11.75C14.05 14.13 14.5 14.45 14.5 15.54C14.5 16.9 13.38 18 12 18M16 10H8V8H16V10Z"
     id="path1"
     style="fill:#e6e6e6" />
  <metadata
     id="metadata1">
    <rdf:RDF>
      <cc:Work
         rdf:about="">
        <dc:title>meter-gas</dc:title>
      </cc:Work>
    </rdf:RDF>
  </metadata>
</svg>
