<?xml version="1.0" encoding="UTF-8" standalone="no"?>
<svg
   viewBox="0 0 24 24"
   version="1.1"
   id="svg1"
   sodipodi:docname="icon_occupancy.svg"
   inkscape:version="1.4.2 (ebf0e94, 2025-05-08)"
   xmlns:inkscape="http://www.inkscape.org/namespaces/inkscape"
   xmlns:sodipodi="http://sodipodi.sourceforge.net/DTD/sodipodi-0.dtd"
   xmlns="http://www.w3.org/2000/svg"
   xmlns:svg="http://www.w3.org/2000/svg"
   xmlns:rdf="http://www.w3.org/1999/02/22-rdf-syntax-ns#"
   xmlns:cc="http://creativecommons.org/ns#"
   xmlns:dc="http://purl.org/dc/elements/1.1/">
  <defs
     id="defs1" />
  <sodipodi:namedview
     id="namedview1"
     pagecolor="#ffffff"
     bordercolor="#666666"
     borderopacity="1.0"
     inkscape:showpageshadow="2"
     inkscape:pageopacity="0.0"
     inkscape:pagecheckerboard="0"
     inkscape:deskcolor="#d1d1d1"
     inkscape:zoom="17.191534"
     inkscape:cx="3.6936786"
     inkscape:cy="9.5104953"
     inkscape:window-width="3440"
     inkscape:window-height="1369"
     inkscape:window-x="3832"
     inkscape:window-y="500"
     inkscape:window-maximized="1"
     inkscape:current-layer="svg1" />
  <title
     id="title1">motion-sensor</title>
  <path
     d="m 9.5,1.1 c -1,0 -1.8,0.8 -1.8,1.8 0,1 0.8,1.8 1.8,1.8 1,0 1.8,-0.8 1.8,-1.8 0,-1 -0.8,-1.8 -1.8,-1.8 m 5.67,0.8 A 7.33,7.33 0 0 0 22.5,9.23 V 7.9 a 6,6 0 0 1 -6,-6 h -1.33 m 2.66,0 c 0,2.58 2.09,4.67 4.67,4.67 V 5.23 c -1.84,0 -3.33,-1.49 -3.33,-3.33 h -1.34 m 2.67,0 a 2,2 0 0 0 2,2 v -2 h -2 M 7.42,4.93 c -0.17,0 -0.34,0.03 -0.5,0.08 L 1.5,6.7 v 5.2 H 3.3 V 8.23 L 5.41,7.57 1.5,22.9 H 3.3 L 6.17,14.79 8.5,17.9 v 5 h 1.8 V 16.49 L 7.81,11.95 8.54,9.08 9.62,10.9 H 14.5 V 9.1 h -3.62 l -2,-3.33 C 8.58,5.27 8.04,4.93 7.42,4.93 Z"
     id="path1"
     style="fill:#e6e6e6" />
  <metadata
     id="metadata1">
    <rdf:RDF>
      <cc:Work
         rdf:about="">
        <dc:title>motion-sensor</dc:title>
      </cc:Work>
    </rdf:RDF>
  </metadata>
</svg>
