<?xml version="1.0" encoding="UTF-8" standalone="no"?>
<!-- Created with Inkscape (http://www.inkscape.org/) -->

<svg
   xmlns:dc="http://purl.org/dc/elements/1.1/"
   xmlns:cc="http://creativecommons.org/ns#"
   xmlns:rdf="http://www.w3.org/1999/02/22-rdf-syntax-ns#"
   xmlns:svg="http://www.w3.org/2000/svg"
   xmlns="http://www.w3.org/2000/svg"
   xmlns:sodipodi="http://sodipodi.sourceforge.net/DTD/sodipodi-0.dtd"
   xmlns:inkscape="http://www.inkscape.org/namespaces/inkscape"
   width="44"
   height="44"
   viewBox="0 0 11.641666 11.641667"
   version="1.1"
   id="svg8"
   inkscape:version="0.92.4 (5da689c313, 2019-01-14)"
   sodipodi:docname="icon_voltage.svg">
  <defs
     id="defs2" />
  <sodipodi:namedview
     id="base"
     pagecolor="#454545"
     bordercolor="#666666"
     borderopacity="1.0"
     inkscape:pageopacity="0"
     inkscape:pageshadow="2"
     inkscape:zoom="5.6568543"
     inkscape:cx="125.06169"
     inkscape:cy="49.480831"
     inkscape:document-units="mm"
     inkscape:current-layer="layer1"
     showgrid="false"
     units="px"
     inkscape:snap-global="false"
     inkscape:window-width="3440"
     inkscape:window-height="1377"
     inkscape:window-x="-8"
     inkscape:window-y="-8"
     inkscape:window-maximized="1"
     inkscape:pagecheckerboard="false"
     showguides="false"
     inkscape:lockguides="false" />
  <metadata
     id="metadata5">
    <rdf:RDF>
      <cc:Work
         rdf:about="">
        <dc:format>image/svg+xml</dc:format>
        <dc:type
           rdf:resource="http://purl.org/dc/dcmitype/StillImage" />
        <dc:title></dc:title>
      </cc:Work>
    </rdf:RDF>
  </metadata>
  <g
     inkscape:label="Calque 1"
     inkscape:groupmode="layer"
     id="layer1"
     transform="translate(0,-285.35832)">
    <path
       inkscape:connector-curvature="0"
       d="m 4.1384163,296.10777 c -0.036994,0 -0.074381,-0.01 -0.1092473,-0.027 -0.1092153,-0.0546 -0.1615013,-0.18137 -0.1225273,-0.29711 l 1.4373329,-4.26953 H 3.4110858 c -0.083883,0 -0.1620713,-0.0432 -0.2069204,-0.11398 -0.044819,-0.071 -0.050096,-0.16018 -0.014098,-0.23595 l 2.2734092,-4.77429 c 0.040532,-0.0852 0.1265447,-0.13938 0.2209211,-0.13938 h 1.6369082 c 0.083193,0 0.1606315,0.0422 0.2057514,0.11219 0.045029,0.0698 0.051474,0.15797 0.017097,0.23354 l -1.3893742,3.06437 h 2.0757913 c 0.090928,0 0.1742134,0.0504 0.216514,0.13078 0.042392,0.0804 0.036606,0.17758 -0.014698,0.25242 l -4.0922708,5.95639 c -0.047069,0.0684 -0.1234271,0.10619 -0.2018238,0.10619 z"
       id="path4547"
       style="fill:#3ab4d7;fill-opacity:1;stroke-width:0.26458335"
       sodipodi:nodetypes="ccccscccsscccsccccc" />
    <g
       id="g4549"
       transform="matrix(0.26458333,0,0,0.26458333,3.9779442,255.74679)">
</g>
    <g
       id="g4551"
       transform="matrix(0.26458333,0,0,0.26458333,3.9779442,255.74679)">
</g>
    <g
       id="g4553"
       transform="matrix(0.26458333,0,0,0.26458333,3.9779442,255.74679)">
</g>
    <g
       id="g4555"
       transform="matrix(0.26458333,0,0,0.26458333,3.9779442,255.74679)">
</g>
    <g
       id="g4557"
       transform="matrix(0.26458333,0,0,0.26458333,3.9779442,255.74679)">
</g>
    <g
       id="g4559"
       transform="matrix(0.26458333,0,0,0.26458333,3.9779442,255.74679)">
</g>
    <g
       id="g4561"
       transform="matrix(0.26458333,0,0,0.26458333,3.9779442,255.74679)">
</g>
    <g
       id="g4563"
       transform="matrix(0.26458333,0,0,0.26458333,3.9779442,255.74679)">
</g>
    <g
       id="g4565"
       transform="matrix(0.26458333,0,0,0.26458333,3.9779442,255.74679)">
</g>
    <g
       id="g4567"
       transform="matrix(0.26458333,0,0,0.26458333,3.9779442,255.74679)">
</g>
    <g
       id="g4569"
       transform="matrix(0.26458333,0,0,0.26458333,3.9779442,255.74679)">
</g>
    <g
       id="g4571"
       transform="matrix(0.26458333,0,0,0.26458333,3.9779442,255.74679)">
</g>
    <g
       id="g4573"
       transform="matrix(0.26458333,0,0,0.26458333,3.9779442,255.74679)">
</g>
    <g
       id="g4575"
       transform="matrix(0.26458333,0,0,0.26458333,3.9779442,255.74679)">
</g>
    <g
       id="g4577"
       transform="matrix(0.26458333,0,0,0.26458333,3.9779442,255.74679)">
</g>
  </g>
</svg>
