<?xml version="1.0" encoding="UTF-8" standalone="no"?>
<svg
   xmlns:dc="http://purl.org/dc/elements/1.1/"
   xmlns:cc="http://creativecommons.org/ns#"
   xmlns:rdf="http://www.w3.org/1999/02/22-rdf-syntax-ns#"
   xmlns:svg="http://www.w3.org/2000/svg"
   xmlns="http://www.w3.org/2000/svg"
   xmlns:sodipodi="http://sodipodi.sourceforge.net/DTD/sodipodi-0.dtd"
   xmlns:inkscape="http://www.inkscape.org/namespaces/inkscape"
   enable-background="new 0 0 64 64"
   height="64px"
   version="1.1"
   viewBox="0 0 64 64"
   width="64px"
   xml:space="preserve"
   id="svg941"
   sodipodi:docname="icon_warning.svg"
   inkscape:version="1.0.1 (3bc2e813f5, 2020-09-07)"><metadata
     id="metadata947"><rdf:RDF><cc:Work
         rdf:about=""><dc:format>image/svg+xml</dc:format><dc:type
           rdf:resource="http://purl.org/dc/dcmitype/StillImage" /><dc:title></dc:title></cc:Work></rdf:RDF></metadata><defs
     id="defs945" /><sodipodi:namedview
     pagecolor="#ffffff"
     bordercolor="#666666"
     borderopacity="1"
     objecttolerance="10"
     gridtolerance="10"
     guidetolerance="10"
     inkscape:pageopacity="0"
     inkscape:pageshadow="2"
     inkscape:window-width="3440"
     inkscape:window-height="1381"
     id="namedview943"
     showgrid="false"
     inkscape:zoom="9.265625"
     inkscape:cx="11.744565"
     inkscape:cy="29.767738"
     inkscape:window-x="0"
     inkscape:window-y="0"
     inkscape:window-maximized="1"
     inkscape:current-layer="svg941" /><g
     id="g965"
     transform="matrix(1.576438,0,0,1.576438,-18.446016,-15.414329)"><g
       id="g929"><path
         d="m 16.954,48 c -4.4,0 -6.2,-3.118 -4,-6.928 L 28,15.012 c 2.2,-3.811 5.8,-3.811 8,0 l 15.046,26.06 c 2.2,3.811 0.4,6.928 -4,6.928 z"
         fill="#f5cf87"
         id="path927" /></g><g
       id="g933"><path
         d="m 34,32 c 0,1.105 -0.895,2 -2,2 v 0 c -1.105,0 -2,-0.895 -2,-2 v -8 c 0,-1.105 0.895,-2 2,-2 v 0 c 1.105,0 2,0.895 2,2 z"
         fill="#4f5d73"
         id="path931" /></g><g
       id="g937"><path
         d="m 34,40 c 0,1.105 -0.895,2 -2,2 v 0 c -1.105,0 -2,-0.895 -2,-2 v 0 c 0,-1.105 0.895,-2 2,-2 v 0 c 1.105,0 2,0.895 2,2 z"
         fill="#4f5d73"
         id="path935" /></g></g><g
     id="Layer_2" /></svg>
