<?xml version="1.0" encoding="UTF-8" standalone="no"?>
<svg
   viewBox="0 0 24 24"
   version="1.1"
   id="svg1"
   sodipodi:docname="icon_smoke.svg"
   inkscape:version="1.4.2 (ebf0e94, 2025-05-08)"
   xmlns:inkscape="http://www.inkscape.org/namespaces/inkscape"
   xmlns:sodipodi="http://sodipodi.sourceforge.net/DTD/sodipodi-0.dtd"
   xmlns="http://www.w3.org/2000/svg"
   xmlns:svg="http://www.w3.org/2000/svg"
   xmlns:rdf="http://www.w3.org/1999/02/22-rdf-syntax-ns#"
   xmlns:cc="http://creativecommons.org/ns#"
   xmlns:dc="http://purl.org/dc/elements/1.1/">
  <defs
     id="defs1" />
  <sodipodi:namedview
     id="namedview1"
     pagecolor="#ffffff"
     bordercolor="#666666"
     borderopacity="1.0"
     inkscape:showpageshadow="2"
     inkscape:pageopacity="0.0"
     inkscape:pagecheckerboard="0"
     inkscape:deskcolor="#d1d1d1"
     inkscape:zoom="17.191534"
     inkscape:cx="-4.2753603"
     inkscape:cy="13.116922"
     inkscape:window-width="3440"
     inkscape:window-height="1369"
     inkscape:window-x="3832"
     inkscape:window-y="500"
     inkscape:window-maximized="1"
     inkscape:current-layer="svg1" />
  <title
     id="title1">smoke-detector-variant</title>
  <path
     d="M12 4C16.41 4 20 7.59 20 12S16.41 20 12 20 4 16.41 4 12 7.59 4 12 4M12 2C6.5 2 2 6.5 2 12S6.5 22 12 22 22 17.5 22 12 17.5 2 12 2M12 11C11.45 11 11 11.45 11 12S11.45 13 12 13 13 12.55 13 12 12.55 11 12 11M10.72 9.3C11.11 9.11 11.54 9 12 9S12.89 9.11 13.29 9.3L14 8.57C13.43 8.22 12.74 8 12 8S10.58 8.22 10 8.57L10.72 9.3M15 12C15 12.46 14.89 12.89 14.7 13.29L15.43 14C15.79 13.43 16 12.74 16 12S15.79 10.58 15.43 10L14.7 10.72C14.89 11.11 15 11.54 15 12M9 12C9 11.54 9.11 11.11 9.3 10.72L8.57 10C8.22 10.58 8 11.26 8 12S8.22 13.43 8.57 14L9.3 13.29C9.11 12.89 9 12.46 9 12M13.29 14.7C12.89 14.89 12.46 15 12 15S11.11 14.89 10.72 14.7L10 15.43C10.58 15.79 11.26 16 12 16S13.43 15.79 14 15.43L13.29 14.7M16.89 8.53L16.17 9.25C16.69 10.04 17 11 17 12S16.69 13.96 16.17 14.75L16.89 15.47C17.59 14.5 18 13.3 18 12S17.59 9.5 16.89 8.53M9.25 7.83C10.04 7.31 11 7 12 7S13.96 7.31 14.75 7.83L15.47 7.11C14.5 6.42 13.3 6 12 6S9.5 6.42 8.53 7.11L9.25 7.83M14.75 16.17C13.96 16.69 13 17 12 17S10.04 16.69 9.25 16.17L8.53 16.89C9.5 17.59 10.7 18 12 18S14.5 17.59 15.47 16.89L14.75 16.17M7.83 14.75C7.31 13.96 7 13 7 12S7.31 10.04 7.83 9.25L7.11 8.53C6.42 9.5 6 10.7 6 12S6.42 14.5 7.11 15.47L7.83 14.75Z"
     id="path1"
     style="fill:#ececec" />
  <metadata
     id="metadata1">
    <rdf:RDF>
      <cc:Work
         rdf:about="">
        <dc:title>smoke-detector-variant</dc:title>
      </cc:Work>
    </rdf:RDF>
  </metadata>
</svg>
