<?xml version="1.0" encoding="UTF-8" standalone="no"?>
<!-- Created with Inkscape (http://www.inkscape.org/) -->

<svg
   xmlns:dc="http://purl.org/dc/elements/1.1/"
   xmlns:cc="http://creativecommons.org/ns#"
   xmlns:rdf="http://www.w3.org/1999/02/22-rdf-syntax-ns#"
   xmlns:svg="http://www.w3.org/2000/svg"
   xmlns="http://www.w3.org/2000/svg"
   xmlns:sodipodi="http://sodipodi.sourceforge.net/DTD/sodipodi-0.dtd"
   xmlns:inkscape="http://www.inkscape.org/namespaces/inkscape"
   width="44"
   height="44"
   viewBox="0 0 11.641666 11.641667"
   version="1.1"
   id="svg8"
   inkscape:version="0.92.4 (5da689c313, 2019-01-14)"
   sodipodi:docname="icon_current.svg">
  <defs
     id="defs2" />
  <sodipodi:namedview
     id="base"
     pagecolor="#454545"
     bordercolor="#666666"
     borderopacity="1.0"
     inkscape:pageopacity="0"
     inkscape:pageshadow="2"
     inkscape:zoom="5.6568543"
     inkscape:cx="125.06169"
     inkscape:cy="49.480831"
     inkscape:document-units="mm"
     inkscape:current-layer="layer1"
     showgrid="false"
     units="px"
     inkscape:snap-global="false"
     inkscape:window-width="3440"
     inkscape:window-height="1377"
     inkscape:window-x="-8"
     inkscape:window-y="-8"
     inkscape:window-maximized="1"
     inkscape:pagecheckerboard="false"
     showguides="false"
     inkscape:lockguides="false" />
  <metadata
     id="metadata5">
    <rdf:RDF>
      <cc:Work
         rdf:about="">
        <dc:format>image/svg+xml</dc:format>
        <dc:type
           rdf:resource="http://purl.org/dc/dcmitype/StillImage" />
        <dc:title></dc:title>
      </cc:Work>
    </rdf:RDF>
  </metadata>
  <g
     inkscape:label="Calque 1"
     inkscape:groupmode="layer"
     id="layer1"
     transform="translate(0,-285.35832)">
    <g
       id="g4549"
       transform="matrix(0.26458333,0,0,0.26458333,3.9779442,255.74679)">
</g>
    <g
       id="g4551"
       transform="matrix(0.26458333,0,0,0.26458333,3.9779442,255.74679)">
</g>
    <g
       id="g4553"
       transform="matrix(0.26458333,0,0,0.26458333,3.9779442,255.74679)">
</g>
    <g
       id="g4555"
       transform="matrix(0.26458333,0,0,0.26458333,3.9779442,255.74679)">
</g>
    <g
       id="g4557"
       transform="matrix(0.26458333,0,0,0.26458333,3.9779442,255.74679)">
</g>
    <g
       id="g4559"
       transform="matrix(0.26458333,0,0,0.26458333,3.9779442,255.74679)">
</g>
    <g
       id="g4561"
       transform="matrix(0.26458333,0,0,0.26458333,3.9779442,255.74679)">
</g>
    <g
       id="g4563"
       transform="matrix(0.26458333,0,0,0.26458333,3.9779442,255.74679)">
</g>
    <g
       id="g4565"
       transform="matrix(0.26458333,0,0,0.26458333,3.9779442,255.74679)">
</g>
    <g
       id="g4567"
       transform="matrix(0.26458333,0,0,0.26458333,3.9779442,255.74679)">
</g>
    <g
       id="g4569"
       transform="matrix(0.26458333,0,0,0.26458333,3.9779442,255.74679)">
</g>
    <g
       id="g4571"
       transform="matrix(0.26458333,0,0,0.26458333,3.9779442,255.74679)">
</g>
    <g
       id="g4573"
       transform="matrix(0.26458333,0,0,0.26458333,3.9779442,255.74679)">
</g>
    <g
       id="g4575"
       transform="matrix(0.26458333,0,0,0.26458333,3.9779442,255.74679)">
</g>
    <g
       id="g4577"
       transform="matrix(0.26458333,0,0,0.26458333,3.9779442,255.74679)">
</g>
    <g
       id="g4683"
       transform="matrix(0.05304389,0,0,0.05304389,0.84807473,286.20639)"
       style="stroke-width:4.98800707;fill:#3ab4d7;fill-opacity:1">
      <g
         id="g4626"
         style="stroke-width:4.98800707;fill:#3ab4d7;fill-opacity:1">
        <path
           id="path4622"
           d="M 93.748,0 C 42.056,0 0,42.055 0,93.748 c 0,51.693 42.056,93.748 93.748,93.748 51.692,0 93.748,-42.055 93.748,-93.748 C 187.496,42.055 145.44,0 93.748,0 Z m 0,173.496 C 49.774,173.496 14,137.721 14,93.748 14,49.775 49.774,14 93.748,14 c 43.974,0 79.748,35.775 79.748,79.748 0,43.973 -35.774,79.748 -79.748,79.748 z"
           inkscape:connector-curvature="0"
           style="stroke-width:4.98800707;fill:#3ab4d7;fill-opacity:1" />
        <path
           id="path4624"
           d="m 99.811,58.37 c -1.251,-2.166 -3.562,-3.5 -6.063,-3.5 -2.501,0 -4.812,1.334 -6.063,3.5 l -34.5,59.756 c -1.933,3.348 -0.785,7.629 2.563,9.562 3.349,1.935 7.63,0.787 9.563,-2.562 l 11.258,-19.5 h 34.358 l 11.258,19.5 c 1.297,2.246 3.649,3.501 6.069,3.501 1.188,0 2.391,-0.302 3.493,-0.939 3.348,-1.933 4.495,-6.214 2.563,-9.562 z m -15.159,33.256 9.096,-15.756 9.096,15.756 z"
           inkscape:connector-curvature="0"
           style="stroke-width:4.98800707;fill:#3ab4d7;fill-opacity:1" />
      </g>
      <g
         id="g4628"
         style="stroke-width:4.98800707;fill:#3ab4d7;fill-opacity:1" />
      <g
         id="g4630"
         style="stroke-width:4.98800707;fill:#3ab4d7;fill-opacity:1" />
      <g
         id="g4632"
         style="stroke-width:4.98800707;fill:#3ab4d7;fill-opacity:1" />
      <g
         id="g4634"
         style="stroke-width:4.98800707;fill:#3ab4d7;fill-opacity:1" />
      <g
         id="g4636"
         style="stroke-width:4.98800707;fill:#3ab4d7;fill-opacity:1" />
      <g
         id="g4638"
         style="stroke-width:4.98800707;fill:#3ab4d7;fill-opacity:1" />
      <g
         id="g4640"
         style="stroke-width:4.98800707;fill:#3ab4d7;fill-opacity:1" />
      <g
         id="g4642"
         style="stroke-width:4.98800707;fill:#3ab4d7;fill-opacity:1" />
      <g
         id="g4644"
         style="stroke-width:4.98800707;fill:#3ab4d7;fill-opacity:1" />
      <g
         id="g4646"
         style="stroke-width:4.98800707;fill:#3ab4d7;fill-opacity:1" />
      <g
         id="g4648"
         style="stroke-width:4.98800707;fill:#3ab4d7;fill-opacity:1" />
      <g
         id="g4650"
         style="stroke-width:4.98800707;fill:#3ab4d7;fill-opacity:1" />
      <g
         id="g4652"
         style="stroke-width:4.98800707;fill:#3ab4d7;fill-opacity:1" />
      <g
         id="g4654"
         style="stroke-width:4.98800707;fill:#3ab4d7;fill-opacity:1" />
      <g
         id="g4656"
         style="stroke-width:4.98800707;fill:#3ab4d7;fill-opacity:1" />
    </g>
  </g>
</svg>
