<?xml version="1.0" encoding="UTF-8" standalone="no"?>
<svg
   viewBox="0 0 512 512"
   version="1.1"
   id="svg4"
   sodipodi:docname="icon_sound.svg"
   inkscape:version="1.4.2 (ebf0e94, 2025-05-08)"
   xmlns:inkscape="http://www.inkscape.org/namespaces/inkscape"
   xmlns:sodipodi="http://sodipodi.sourceforge.net/DTD/sodipodi-0.dtd"
   xmlns="http://www.w3.org/2000/svg"
   xmlns:svg="http://www.w3.org/2000/svg">
  <defs
     id="defs4" />
  <sodipodi:namedview
     id="namedview4"
     pagecolor="#ffffff"
     bordercolor="#666666"
     borderopacity="1.0"
     inkscape:showpageshadow="2"
     inkscape:pageopacity="0.0"
     inkscape:pagecheckerboard="0"
     inkscape:deskcolor="#d1d1d1"
     inkscape:zoom="1.1396484"
     inkscape:cx="187.33847"
     inkscape:cy="228.57926"
     inkscape:window-width="3440"
     inkscape:window-height="1369"
     inkscape:window-x="3832"
     inkscape:window-y="500"
     inkscape:window-maximized="1"
     inkscape:current-layer="svg4" />
  <title
     id="title1" />
  <g
     data-name="1"
     id="_1"
     style="fill:#e6e6e6"
     transform="translate(-0.35125,-32)">
    <path
       d="M 179,388 H 103.35 A 49.27,49.27 0 0 1 54.13,338.79 V 237.21 A 49.27,49.27 0 0 1 103.35,188 H 179 a 15,15 0 0 1 15,15 v 170 a 15,15 0 0 1 -15,15 z M 103.35,218 A 19.24,19.24 0 0 0 84.13,237.21 V 338.79 A 19.24,19.24 0 0 0 103.35,358 H 164 V 218 Z"
       id="path1"
       style="fill:#e6e6e6" />
    <path
       d="M 295,452.92 H 245.62 A 81.71,81.71 0 0 1 164,371.3 V 204.7 a 81.71,81.71 0 0 1 81.62,-81.62 H 295 a 15,15 0 0 1 15,15 v 299.84 a 15,15 0 0 1 -15,15 z M 245.62,153.08 A 51.68,51.68 0 0 0 194,204.7 v 166.6 a 51.68,51.68 0 0 0 51.62,51.62 H 280 V 153.08 Z"
       id="path2"
       style="fill:#e6e6e6" />
    <path
       d="M 358.57,351.57 A 15,15 0 0 1 348,326 a 53.73,53.73 0 0 0 0,-76 15.004806,15.004806 0 0 1 21.22,-21.22 83.79,83.79 0 0 1 0,118.36 15,15 0 0 1 -10.65,4.43 z"
       id="path3"
       style="fill:#e6e6e6" />
    <path
       d="m 404.5,397.5 a 15,15 0 0 1 -10.61,-25.61 118.77,118.77 0 0 0 0,-167.78 15.004806,15.004806 0 0 1 21.22,-21.22 c 57.95,58 57.95,152.26 0,210.22 a 15,15 0 0 1 -10.61,4.39 z"
       id="path4"
       style="fill:#e6e6e6" />
  </g>
</svg>
