<?xml version="1.0" encoding="UTF-8" standalone="no"?>
<!-- Created with Inkscape (http://www.inkscape.org/) -->

<svg
   xmlns:dc="http://purl.org/dc/elements/1.1/"
   xmlns:cc="http://creativecommons.org/ns#"
   xmlns:rdf="http://www.w3.org/1999/02/22-rdf-syntax-ns#"
   xmlns:svg="http://www.w3.org/2000/svg"
   xmlns="http://www.w3.org/2000/svg"
   xmlns:sodipodi="http://sodipodi.sourceforge.net/DTD/sodipodi-0.dtd"
   xmlns:inkscape="http://www.inkscape.org/namespaces/inkscape"
   width="44"
   height="44"
   viewBox="0 0 11.641666 11.641667"
   version="1.1"
   id="svg8"
   inkscape:version="0.92.4 (5da689c313, 2019-01-14)"
   sodipodi:docname="icon_watt.svg">
  <defs
     id="defs2" />
  <sodipodi:namedview
     id="base"
     pagecolor="#454545"
     bordercolor="#666666"
     borderopacity="1.0"
     inkscape:pageopacity="0"
     inkscape:pageshadow="2"
     inkscape:zoom="8"
     inkscape:cx="31.902619"
     inkscape:cy="34.155385"
     inkscape:document-units="mm"
     inkscape:current-layer="layer1"
     showgrid="false"
     units="px"
     inkscape:snap-global="false"
     inkscape:window-width="3440"
     inkscape:window-height="1377"
     inkscape:window-x="-8"
     inkscape:window-y="-8"
     inkscape:window-maximized="1"
     inkscape:pagecheckerboard="false"
     showguides="false"
     inkscape:lockguides="false" />
  <metadata
     id="metadata5">
    <rdf:RDF>
      <cc:Work
         rdf:about="">
        <dc:format>image/svg+xml</dc:format>
        <dc:type
           rdf:resource="http://purl.org/dc/dcmitype/StillImage" />
        <dc:title></dc:title>
      </cc:Work>
    </rdf:RDF>
  </metadata>
  <g
     inkscape:label="Calque 1"
     inkscape:groupmode="layer"
     id="layer1"
     transform="translate(0,-285.35832)">
    <g
       id="g4549"
       transform="matrix(0.26458333,0,0,0.26458333,3.9779442,255.74679)">
</g>
    <g
       id="g4551"
       transform="matrix(0.26458333,0,0,0.26458333,3.9779442,255.74679)">
</g>
    <g
       id="g4553"
       transform="matrix(0.26458333,0,0,0.26458333,3.9779442,255.74679)">
</g>
    <g
       id="g4555"
       transform="matrix(0.26458333,0,0,0.26458333,3.9779442,255.74679)">
</g>
    <g
       id="g4557"
       transform="matrix(0.26458333,0,0,0.26458333,3.9779442,255.74679)">
</g>
    <g
       id="g4559"
       transform="matrix(0.26458333,0,0,0.26458333,3.9779442,255.74679)">
</g>
    <g
       id="g4561"
       transform="matrix(0.26458333,0,0,0.26458333,3.9779442,255.74679)">
</g>
    <g
       id="g4563"
       transform="matrix(0.26458333,0,0,0.26458333,3.9779442,255.74679)">
</g>
    <g
       id="g4565"
       transform="matrix(0.26458333,0,0,0.26458333,3.9779442,255.74679)">
</g>
    <g
       id="g4567"
       transform="matrix(0.26458333,0,0,0.26458333,3.9779442,255.74679)">
</g>
    <g
       id="g4569"
       transform="matrix(0.26458333,0,0,0.26458333,3.9779442,255.74679)">
</g>
    <g
       id="g4571"
       transform="matrix(0.26458333,0,0,0.26458333,3.9779442,255.74679)">
</g>
    <g
       id="g4573"
       transform="matrix(0.26458333,0,0,0.26458333,3.9779442,255.74679)">
</g>
    <g
       id="g4575"
       transform="matrix(0.26458333,0,0,0.26458333,3.9779442,255.74679)">
</g>
    <g
       id="g4577"
       transform="matrix(0.26458333,0,0,0.26458333,3.9779442,255.74679)">
</g>
    <g
       id="g4901"
       transform="matrix(0.53810533,0,0,0.53810533,2.2800876,133.0918)"
       style="stroke-width:1.85837221">
      <g
         transform="matrix(0.04547499,0,0,0.04547499,-5.8768734,280.97421)"
         id="g4764"
         style="fill:#3ab4d7;fill-opacity:1;stroke-width:10.81241322">
	<g
   id="g4762"
   style="fill:#3ab4d7;fill-opacity:1;stroke-width:10.81241322">
		<path
   id="path4760"
   d="m 407.962,451.145 c -3.231,-4.476 -9.481,-5.484 -13.96,-2.249 -28.588,20.657 -60.725,34.342 -95.519,40.675 -8.062,1.468 -16.284,-0.693 -22.557,-5.927 -6.228,-5.196 -9.799,-12.83 -9.799,-20.943 V 389.403 H 267 c 11.579,0 21,-9.42 21,-21 V 351.52 c 33.873,-12.93 58,-45.756 58,-84.116 v -47.345 c 16.116,-4.402 28,-19.163 28,-36.655 0,-19.257 -14.403,-35.204 -33,-37.661 V 83.404 c 0,-16.542 -13.458,-30 -30,-30 -16.542,0 -30,13.458 -30,30 v 62 h -50 v -62 c 0,-16.542 -13.458,-30 -30,-30 -16.542,0 -30,13.458 -30,30 v 62.339 c -18.597,2.457 -33,18.403 -33,37.661 0,17.492 11.884,32.253 28,36.655 v 47.345 c 0,38.36 24.127,71.186 58,84.116 v 16.884 c 0,11.58 9.421,21 21,21 h 1.127 v 73.298 c 0,14.062 6.191,27.292 16.985,36.299 8.615,7.188 19.351,11.023 30.379,11.023 2.849,0 5.717,-0.256 8.573,-0.776 37.752,-6.872 72.625,-21.723 103.649,-44.141 4.477,-3.235 5.483,-9.486 2.249,-13.962 z M 301.001,83.404 c 0,-5.514 4.486,-10 10,-10 5.514,0 10,4.486 10,10 v 62 h -20 z m -110,0 c 0,-5.514 4.486,-10 10,-10 5.514,0 10,4.486 10,10 v 62 h -20 z m -33,100 c 0,-9.925 8.075,-18 18,-18 h 160 c 9.925,0 18,8.075 18,18 0,9.925 -8.075,18 -18,18 h -160 c -9.925,0 -18,-8.075 -18,-18 z m 28,84 v -46 h 140 v 46 c 0,38.598 -31.402,70 -70,70 -38.598,0 -70,-31.402 -70,-70 z m 70.379,102 c -0.084,-0.002 -0.167,-0.013 -0.251,-0.013 -0.084,0 -0.167,0.011 -0.251,0.013 h -10.875 c -0.554,0 -1.002,-0.449 -1.002,-1 v -11.802 c 3.927,0.526 7.932,0.802 12,0.802 4.068,0 8.073,-0.276 12,-0.802 v 11.802 c 0,0.551 -0.448,1 -1,1 z"
   inkscape:connector-curvature="0"
   style="fill:#3ab4d7;fill-opacity:1;stroke-width:10.81241322" />

	</g>

</g>
      <g
         transform="matrix(0.04547499,0,0,0.04547499,-5.8768734,280.97421)"
         id="g4788"
         style="fill:#3ab4d7;fill-opacity:1;stroke-width:10.81241322">
	<g
   id="g4786"
   style="fill:#3ab4d7;fill-opacity:1;stroke-width:10.81241322">
		<path
   id="path4784"
   d="m 278.548,263.701 c -1.792,-3.074 -5.082,-4.964 -8.64,-4.964 h -7.146 l 13.162,-16.626 c 3.428,-4.33 2.696,-10.62 -1.634,-14.047 -4.33,-3.429 -10.62,-2.696 -14.048,1.633 L 234.25,262.53 c -2.38,3.007 -2.831,7.11 -1.161,10.562 1.67,3.452 5.167,5.645 9.002,5.645 h 10.66 l -12.246,21.622 c -2.722,4.806 -1.032,10.908 3.772,13.629 1.558,0.882 3.249,1.301 4.92,1.301 3.487,-10e-4 6.872,-1.826 8.712,-5.074 l 20.701,-36.55 c 1.754,-3.096 1.73,-6.89 -0.062,-9.964 z"
   inkscape:connector-curvature="0"
   style="fill:#3ab4d7;fill-opacity:1;stroke-width:10.81241322" />

	</g>

</g>
    </g>
    <g
       style="stroke-width:5.8182168"
       id="g4790"
       transform="matrix(0.04547499,0,0,0.04547499,-5.8768734,280.97421)">
</g>
    <g
       style="stroke-width:5.8182168"
       id="g4792"
       transform="matrix(0.04547499,0,0,0.04547499,-5.8768734,280.97421)">
</g>
    <g
       style="stroke-width:5.8182168"
       id="g4794"
       transform="matrix(0.04547499,0,0,0.04547499,-5.8768734,280.97421)">
</g>
    <g
       style="stroke-width:5.8182168"
       id="g4796"
       transform="matrix(0.04547499,0,0,0.04547499,-5.8768734,280.97421)">
</g>
    <g
       style="stroke-width:5.8182168"
       id="g4798"
       transform="matrix(0.04547499,0,0,0.04547499,-5.8768734,280.97421)">
</g>
    <g
       style="stroke-width:5.8182168"
       id="g4800"
       transform="matrix(0.04547499,0,0,0.04547499,-5.8768734,280.97421)">
</g>
    <g
       style="stroke-width:5.8182168"
       id="g4802"
       transform="matrix(0.04547499,0,0,0.04547499,-5.8768734,280.97421)">
</g>
    <g
       style="stroke-width:5.8182168"
       id="g4804"
       transform="matrix(0.04547499,0,0,0.04547499,-5.8768734,280.97421)">
</g>
    <g
       style="stroke-width:5.8182168"
       id="g4806"
       transform="matrix(0.04547499,0,0,0.04547499,-5.8768734,280.97421)">
</g>
    <g
       style="stroke-width:5.8182168"
       id="g4808"
       transform="matrix(0.04547499,0,0,0.04547499,-5.8768734,280.97421)">
</g>
    <g
       style="stroke-width:5.8182168"
       id="g4810"
       transform="matrix(0.04547499,0,0,0.04547499,-5.8768734,280.97421)">
</g>
    <g
       style="stroke-width:5.8182168"
       id="g4812"
       transform="matrix(0.04547499,0,0,0.04547499,-5.8768734,280.97421)">
</g>
    <g
       style="stroke-width:5.8182168"
       id="g4814"
       transform="matrix(0.04547499,0,0,0.04547499,-5.8768734,280.97421)">
</g>
    <g
       style="stroke-width:5.8182168"
       id="g4816"
       transform="matrix(0.04547499,0,0,0.04547499,-5.8768734,280.97421)">
</g>
    <g
       style="stroke-width:5.8182168"
       id="g4818"
       transform="matrix(0.04547499,0,0,0.04547499,-5.8768734,280.97421)">
</g>
  </g>
</svg>
