<?xml version="1.0" encoding="UTF-8" standalone="no"?>
<!-- Created with Inkscape (http://www.inkscape.org/) -->

<svg
   xmlns:dc="http://purl.org/dc/elements/1.1/"
   xmlns:cc="http://creativecommons.org/ns#"
   xmlns:rdf="http://www.w3.org/1999/02/22-rdf-syntax-ns#"
   xmlns:svg="http://www.w3.org/2000/svg"
   xmlns="http://www.w3.org/2000/svg"
   xmlns:sodipodi="http://sodipodi.sourceforge.net/DTD/sodipodi-0.dtd"
   xmlns:inkscape="http://www.inkscape.org/namespaces/inkscape"
   width="44"
   height="44"
   viewBox="0 0 11.641666 11.641667"
   version="1.1"
   id="svg8"
   inkscape:version="0.92.4 (5da689c313, 2019-01-14)"
   sodipodi:docname="icon_heater_on.svg">
  <defs
     id="defs2" />
  <sodipodi:namedview
     id="base"
     pagecolor="#454545"
     bordercolor="#666666"
     borderopacity="1.0"
     inkscape:pageopacity="0"
     inkscape:pageshadow="2"
     inkscape:zoom="11.313709"
     inkscape:cx="22.733763"
     inkscape:cy="42.693818"
     inkscape:document-units="mm"
     inkscape:current-layer="layer1"
     showgrid="false"
     units="px"
     inkscape:snap-global="false"
     inkscape:window-width="1718"
     inkscape:window-height="1368"
     inkscape:window-x="-7"
     inkscape:window-y="0"
     inkscape:window-maximized="0"
     inkscape:pagecheckerboard="false"
     showguides="false"
     inkscape:lockguides="false" />
  <metadata
     id="metadata5">
    <rdf:RDF>
      <cc:Work
         rdf:about="">
        <dc:format>image/svg+xml</dc:format>
        <dc:type
           rdf:resource="http://purl.org/dc/dcmitype/StillImage" />
        <dc:title></dc:title>
      </cc:Work>
    </rdf:RDF>
  </metadata>
  <g
     inkscape:label="Calque 1"
     inkscape:groupmode="layer"
     id="layer1"
     transform="translate(0,-285.35832)">
    <g
       id="g17474"
       transform="translate(0.06785733)">
      <rect
         ry="0.70158249"
         rx="0.70158249"
         y="289.37613"
         x="1.1225319"
         height="6.7351923"
         width="1.403165"
         id="rect17459"
         style="fill:#e7e7e7;fill-opacity:1;stroke:none;stroke-width:0.184;stroke-linecap:round;stroke-miterlimit:4;stroke-dasharray:none;stroke-opacity:1" />
      <rect
         style="fill:#e7e7e7;fill-opacity:1;stroke:none;stroke-width:0.184;stroke-linecap:round;stroke-miterlimit:4;stroke-dasharray:none;stroke-opacity:1"
         id="rect17461"
         width="1.403165"
         height="6.7351923"
         x="3.0869632"
         y="289.37613"
         rx="0.70158249"
         ry="0.70158249" />
      <rect
         ry="0.70158249"
         rx="0.70158249"
         y="289.37613"
         x="5.0513935"
         height="6.7351923"
         width="1.403165"
         id="rect17463"
         style="fill:#e7e7e7;fill-opacity:1;stroke:none;stroke-width:0.184;stroke-linecap:round;stroke-miterlimit:4;stroke-dasharray:none;stroke-opacity:1" />
      <rect
         style="fill:#e7e7e7;fill-opacity:1;stroke:none;stroke-width:0.184;stroke-linecap:round;stroke-miterlimit:4;stroke-dasharray:none;stroke-opacity:1"
         id="rect17465"
         width="1.403165"
         height="6.7351923"
         x="7.0158248"
         y="289.37613"
         rx="0.70158249"
         ry="0.70158249" />
      <rect
         ry="0.70158249"
         rx="0.70158249"
         y="289.37613"
         x="8.9802551"
         height="6.7351923"
         width="1.403165"
         id="rect17467"
         style="fill:#e7e7e7;fill-opacity:1;stroke:none;stroke-width:0.184;stroke-linecap:round;stroke-miterlimit:4;stroke-dasharray:none;stroke-opacity:1" />
    </g>
    <rect
       ry="0.35079125"
       rx="0.35079125"
       y="294.7106"
       x="0.76943886"
       height="0.69674397"
       width="10.102789"
       id="rect17478"
       style="fill:#e7e7e7;fill-opacity:1;stroke:none;stroke-width:0.184;stroke-linecap:round;stroke-miterlimit:4;stroke-dasharray:none;stroke-opacity:1" />
    <rect
       style="fill:#e7e7e7;fill-opacity:1;stroke:none;stroke-width:0.184;stroke-linecap:round;stroke-miterlimit:4;stroke-dasharray:none;stroke-opacity:1"
       id="rect17480"
       width="10.687442"
       height="0.69674397"
       x="0.1847868"
       y="290.22046"
       rx="0.35079125"
       ry="0.35079125" />
    <rect
       style="fill:#e7e7e7;fill-opacity:1;stroke:none;stroke-width:0.184;stroke-linecap:round;stroke-miterlimit:4;stroke-dasharray:none;stroke-opacity:1"
       id="rect17482"
       width="0.30401909"
       height="1.099146"
       x="0.51449382"
       y="290.01926"
       rx="0.15200955"
       ry="0.15200955" />
    <path
       style="fill:none;stroke:#ff3d3d;stroke-width:0.465;stroke-linecap:round;stroke-linejoin:miter;stroke-miterlimit:4;stroke-dasharray:none;stroke-opacity:1"
       d="m 2.9659728,286.08592 c 0,0 -0.2315104,0.31642 0,0.54793 0.2315104,0.23151 0.090937,0.45697 0,0.54793 -0.090962,0.091 -0.1948302,0.32754 0,0.54793 0.215054,0.24326 0.0685,0.4256 0,0.54793 -0.1441667,0.25746 -0.1084463,0.43987 0,0.54793"
       id="path17484"
       inkscape:connector-curvature="0"
       sodipodi:nodetypes="cssssc" />
    <path
       sodipodi:nodetypes="cssc"
       inkscape:connector-curvature="0"
       id="path17486"
       d="m 4.1025366,287.18178 c -0.090962,0.091 -0.1948302,0.32754 0,0.54793 0.215054,0.24326 0.0685,0.4256 0,0.54793 -0.1441667,0.25746 -0.1084463,0.43987 0,0.54793"
       style="fill:none;stroke:#ff3d3d;stroke-width:0.465;stroke-linecap:round;stroke-linejoin:miter;stroke-miterlimit:4;stroke-dasharray:none;stroke-opacity:1" />
    <path
       style="fill:none;stroke:#ff3d3d;stroke-width:0.465;stroke-linecap:round;stroke-linejoin:miter;stroke-miterlimit:4;stroke-dasharray:none;stroke-opacity:1"
       d="m 5.2391007,286.63385 c 0.2315104,0.23151 0.090937,0.45697 0,0.54793 -0.090962,0.091 -0.1948302,0.32754 0,0.54793 0.215054,0.24326 0.0685,0.4256 0,0.54793 -0.1441667,0.25746 -0.1084463,0.43987 0,0.54793"
       id="path17488"
       inkscape:connector-curvature="0"
       sodipodi:nodetypes="csssc" />
    <path
       sodipodi:nodetypes="cssssc"
       inkscape:connector-curvature="0"
       id="path17490"
       d="m 6.375664,286.08592 c 0,0 -0.2315104,0.31642 0,0.54793 0.2315104,0.23151 0.090937,0.45697 0,0.54793 -0.090962,0.091 -0.1948302,0.32754 0,0.54793 0.215054,0.24326 0.0685,0.4256 0,0.54793 -0.1441667,0.25746 -0.1084463,0.43987 0,0.54793"
       style="fill:none;stroke:#ff3d3d;stroke-width:0.465;stroke-linecap:round;stroke-linejoin:miter;stroke-miterlimit:4;stroke-dasharray:none;stroke-opacity:1" />
    <path
       style="fill:none;stroke:#ff3d3d;stroke-width:0.465;stroke-linecap:round;stroke-linejoin:miter;stroke-miterlimit:4;stroke-dasharray:none;stroke-opacity:1"
       d="m 7.5122279,287.72971 c 0.215054,0.24326 0.0685,0.4256 0,0.54793 -0.1441667,0.25746 -0.1084463,0.43987 0,0.54793"
       id="path17492"
       inkscape:connector-curvature="0"
       sodipodi:nodetypes="csc" />
    <path
       sodipodi:nodetypes="cssssc"
       inkscape:connector-curvature="0"
       id="path17494"
       d="m 8.6487912,286.08592 c 0,0 -0.2315104,0.31642 0,0.54793 0.2315104,0.23151 0.090937,0.45697 0,0.54793 -0.090962,0.091 -0.1948302,0.32754 0,0.54793 0.215054,0.24326 0.0685,0.4256 0,0.54793 -0.1441667,0.25746 -0.1084463,0.43987 0,0.54793"
       style="fill:none;stroke:#ff3d3d;stroke-width:0.465;stroke-linecap:round;stroke-linejoin:miter;stroke-miterlimit:4;stroke-dasharray:none;stroke-opacity:1" />
  </g>
</svg>
