<?xml version="1.0" encoding="UTF-8" standalone="no"?>
<svg
   xmlns:dc="http://purl.org/dc/elements/1.1/"
   xmlns:cc="http://creativecommons.org/ns#"
   xmlns:rdf="http://www.w3.org/1999/02/22-rdf-syntax-ns#"
   xmlns:svg="http://www.w3.org/2000/svg"
   xmlns="http://www.w3.org/2000/svg"
   xmlns:sodipodi="http://sodipodi.sourceforge.net/DTD/sodipodi-0.dtd"
   xmlns:inkscape="http://www.inkscape.org/namespaces/inkscape"
   width="24"
   height="24"
   viewBox="0 0 24 24"
   id="svg2"
   version="1.1"
   inkscape:version="0.91 r13725"
   sodipodi:docname="keyboard_voice.svg"
   inkscape:export-filename="D:\Tests\mobile\img\voice@2x.png"
   inkscape:export-xdpi="206.25"
   inkscape:export-ydpi="206.25">
  <metadata
     id="metadata10">
    <rdf:RDF>
      <cc:Work
         rdf:about="">
        <dc:format>image/svg+xml</dc:format>
        <dc:type
           rdf:resource="http://purl.org/dc/dcmitype/StillImage" />
      </cc:Work>
    </rdf:RDF>
  </metadata>
  <defs
     id="defs8" />
  <sodipodi:namedview
     pagecolor="#ffffff"
     bordercolor="#666666"
     borderopacity="1"
     objecttolerance="10"
     gridtolerance="10"
     guidetolerance="10"
     inkscape:pageopacity="0"
     inkscape:pageshadow="2"
     inkscape:window-width="1920"
     inkscape:window-height="1027"
     id="namedview6"
     showgrid="false"
     inkscape:zoom="9.8333333"
     inkscape:cx="-3.2033898"
     inkscape:cy="12"
     inkscape:window-x="1272"
     inkscape:window-y="-8"
     inkscape:window-maximized="1"
     inkscape:current-layer="svg2" />
  <path
     d="m 12,14.967885 c 1.908778,0 3.4381,-1.54082 3.4381,-3.449598 l 0.0115,-6.8991969 c 0,-1.9087779 -1.540821,-3.4495986 -3.449599,-3.4495986 -1.908778,0 -3.4495986,1.5408207 -3.4495986,3.4495986 l 0,6.8991969 c 0,1.908778 1.5408206,3.449598 3.4495986,3.449598 z m 6.094291,-3.449598 c 0,3.449598 -2.92066,5.864317 -6.094291,5.864317 -3.1736307,0 -6.0942908,-2.414719 -6.0942908,-5.864317 l -1.9547725,0 c 0,3.932542 3.127636,7.163666 6.8991973,7.727101 l 0,3.771561 2.299732,0 0,-3.771561 c 3.771561,-0.551936 6.899197,-3.794559 6.899197,-7.727101 l -1.954772,0 z"
     id="path4"
     style="fill:#e7e7e7;fill-opacity:1"
     inkscape:connector-curvature="0" />
</svg>
